<svg width="194" height="191" viewBox="0 0 194 191" fill="none" xmlns="http://www.w3.org/2000/svg">
<g clip-path="url(#clip0_100_627)">
<path d="M149.886 149.416C151.018 150.815 152.494 152.013 154.307 153.001C158.92 155.517 164.134 156.641 168.16 157.339C171.649 157.944 175.222 158.465 178.678 158.969C180.28 159.203 181.936 159.445 183.563 159.692C186.024 160.065 188.485 160.442 190.947 160.82C196.02 161.598 201.265 162.402 206.433 163.159C211.223 163.86 216.362 163.6 222.608 162.34C226.387 161.577 229.849 161.034 233.196 160.68C236.892 160.289 239.952 160.822 242.551 162.313C245.659 164.096 246.849 166.768 246.297 170.72C245.789 174.36 243.75 177.392 241.525 180.434C240.566 181.745 239.543 183.05 238.552 184.312C236.679 186.702 234.742 189.172 233.144 191.804C230.77 195.715 229.468 199.765 229.164 204.187C228.764 210.02 229.671 215.733 230.47 220.776L230.601 221.601C231.154 225.09 231.725 228.697 232.424 232.207C233.572 237.971 235.065 242.454 237.118 246.316C238.163 248.279 239.423 250.59 240.863 252.849C241.79 254.302 242.817 255.72 243.812 257.09C244.27 257.722 244.745 258.377 245.203 259.025C245.416 259.327 245.624 259.643 245.825 259.949C246.23 260.566 246.648 261.205 247.142 261.772C247.474 262.155 247.806 262.539 248.136 262.923C249.729 264.769 251.374 266.677 253.153 268.404C256.587 271.736 260.616 274.467 265.13 276.517C270.455 278.934 275.437 280.493 280.36 281.28C286.336 282.235 291.273 282.234 295.898 281.273C298.17 280.802 300.299 279.877 302.056 278.598L303.089 277.847C304.866 276.552 306.704 275.214 308.526 273.92C312.651 270.989 316.757 268.268 321.603 267.164C324.523 266.499 327.102 266.466 329.489 267.062C329.616 267.094 329.744 267.017 329.775 266.89C329.806 266.763 329.728 266.635 329.602 266.603C327.142 265.989 324.491 266.022 321.497 266.702C316.566 267.825 312.417 270.574 308.251 273.534C306.427 274.829 304.588 276.169 302.809 277.464L301.777 278.216C300.073 279.455 298.007 280.353 295.801 280.809C291.233 281.756 286.351 281.757 280.433 280.81C275.552 280.03 270.61 278.484 265.324 276.084C260.86 274.058 256.875 271.358 253.481 268.063C251.717 266.351 250.078 264.451 248.493 262.613C248.161 262.229 247.83 261.844 247.497 261.461C247.025 260.917 246.615 260.293 246.219 259.689C246.015 259.379 245.806 259.059 245.588 258.752C245.128 258.101 244.653 257.444 244.194 256.811C243.205 255.446 242.182 254.035 241.262 252.594C239.83 250.349 238.575 248.048 237.535 246.093C235.503 242.273 234.027 237.831 232.888 232.113C232.191 228.613 231.62 225.01 231.068 221.525L230.937 220.701C230.141 215.684 229.239 209.997 229.635 204.219C229.934 199.875 231.213 195.894 233.547 192.05C235.131 189.442 237.058 186.982 238.923 184.604C239.916 183.339 240.942 182.03 241.905 180.712C244.167 177.62 246.24 174.533 246.764 170.785C247.338 166.674 246.036 163.767 242.783 161.901C240.095 160.359 236.942 159.805 233.143 160.207C229.781 160.563 226.304 161.109 222.511 161.873C216.321 163.122 211.232 163.381 206.498 162.689C201.331 161.933 196.086 161.128 191.014 160.351C188.553 159.974 186.091 159.596 183.63 159.222C182.002 158.976 180.345 158.733 178.742 158.5C175.289 157.996 171.719 157.475 168.236 156.872C164.245 156.18 159.08 155.067 154.529 152.585C150.744 150.52 148.481 147.516 147.804 143.655C147.265 140.583 147.678 137.194 149.103 132.987C150.311 129.422 151.939 125.923 153.512 122.539C154.361 120.712 155.24 118.823 156.043 116.942C158.52 111.144 160.047 106.24 160.845 101.508C161.805 95.8176 162.014 90.1305 161.466 84.6045C161.089 80.8037 159.998 78.0766 158.033 76.0209C157.546 75.5107 157.026 75.018 156.523 74.5424C156.071 74.1143 155.605 73.6729 155.166 73.2226C152.671 70.6587 151.449 67.9211 151.433 64.8533C151.427 63.809 151.434 62.7435 151.44 61.714C151.451 59.8409 151.463 57.9048 151.401 56.0078C151.316 53.409 150.542 51.4071 149.104 50.0575C147.522 48.5739 145.428 47.8053 143.4 47.1953L142.31 46.8688C139.037 45.8877 135.653 44.8738 132.462 43.6155C128.284 41.9676 124.54 39.3495 121.015 35.6104C119.357 33.8527 117.351 32.7948 114.883 32.3757C114.132 32.248 113.365 32.132 112.623 32.0203C110.993 31.7729 109.307 31.517 107.703 31.1327C102.52 29.8893 97.6443 28.1824 93.2112 26.0577C89.9099 24.4753 87.2478 22.4001 85.2987 19.8898C83.9464 18.1473 82.84 16.5245 81.9165 14.9306C81.3136 13.8887 80.7794 12.776 80.2625 11.6996C79.8259 10.79 79.3747 9.85114 78.8815 8.95235L78.6663 8.56061C77.0686 5.64706 75.4154 2.63496 73.6052 -0.208831C72.9092 -1.30193 71.9885 -2.25754 71.099 -3.18036C70.7503 -3.54185 70.3903 -3.91548 70.0514 -4.29103C69.3924 -5.01911 68.7146 -5.75174 68.0587 -6.46095C66.9413 -7.66916 65.7859 -8.91678 64.6908 -10.1781C62.9021 -12.2386 61.3644 -14.5052 60.1175 -16.9157C59.0087 -19.0597 58.3705 -21.3527 58.1695 -23.926C57.8818 -27.5961 58.8964 -31.2416 59.8699 -34.3689C61.0803 -38.2551 62.2381 -42.2194 63.3572 -46.0532C63.6713 -47.1279 63.9855 -48.2025 64.3003 -49.2763C64.6384 -50.4284 64.9905 -51.6008 65.3307 -52.7333C66.2706 -55.8608 67.2426 -59.0952 68.0357 -62.299C68.9299 -65.9112 69.0911 -69.0904 68.528 -72.0191C68.1565 -73.9543 67.2726 -75.3941 65.9721 -76.1827C64.6216 -77.001 62.9093 -77.104 60.8798 -76.4913C58.5053 -75.7733 56.2719 -74.6144 54.1113 -73.4931L53.8783 -73.3717C49.2357 -70.9649 45.6451 -69.2523 42.2356 -67.8173C38.104 -66.0803 34.0183 -63.6895 28.9874 -60.0688C27.4255 -58.9438 25.8881 -57.7303 24.4026 -56.5558C23.151 -55.5675 21.8572 -54.545 20.5569 -53.5829C19.0099 -52.4395 17.1647 -51.1294 15.1996 -50.0915C11.8165 -48.3027 9.03526 -47.7194 6.44666 -48.2557C5.33313 -48.4864 3.82091 -49.0502 2.93652 -50.4286C1.91666 -52.0177 1.57659 -53.9159 1.92708 -56.0724C2.48006 -59.4847 4.22807 -62.5356 5.97122 -65.369L6.11601 -65.605C7.58511 -67.994 9.10554 -70.4642 10.3895 -72.9825C11.833 -75.8144 12.4004 -78.854 12.948 -81.7922C13.0536 -82.3565 13.1629 -82.9407 13.2751 -83.5119C13.9606 -86.9689 15.2861 -90.14 17.3283 -93.2047C19.3289 -96.2082 20.1063 -98.7742 19.7738 -101.281C19.5179 -103.212 18.9266 -105.088 18.3925 -106.697C17.2452 -110.15 15.2625 -113.164 13.4731 -115.657C12.5137 -116.993 11.374 -118.222 10.2723 -119.41C9.97036 -119.737 9.66834 -120.061 9.36997 -120.389C8.06394 -121.822 6.67827 -123.283 5.1357 -124.854C4.09012 -125.919 3.00465 -126.98 1.95678 -128.007C1.47628 -128.477 0.997504 -128.946 0.518839 -129.418C-1.20371 -131.118 -3.18465 -132.656 -5.36784 -133.987C-10.0926 -136.868 -15.2698 -138.574 -20.7564 -139.056C-22.2004 -139.183 -23.6805 -139.237 -25.1128 -139.289C-26.0172 -139.322 -26.9525 -139.356 -27.8667 -139.408L-28.4764 -139.443C-31.5525 -139.618 -34.7348 -139.799 -37.8496 -140.039C-41.441 -140.316 -45.3026 -140.097 -49.6558 -139.37C-52.5956 -138.88 -55.7278 -138.514 -58.7168 -139.157C-62.612 -139.993 -65.9966 -142.079 -69.0653 -145.531C-69.9951 -146.577 -70.8111 -147.764 -71.5999 -148.912C-71.7717 -149.162 -71.9435 -149.411 -72.1162 -149.661C-72.2539 -149.859 -72.3932 -150.057 -72.5317 -150.255C-73.2882 -151.332 -74.0705 -152.446 -74.6829 -153.623C-76.2468 -156.628 -78.5604 -158.106 -81.7572 -158.139C-83.0934 -158.153 -84.6715 -158.13 -86.2369 -157.848C-89.5672 -157.251 -91.9792 -157.584 -93.8293 -158.898C-95.5792 -160.14 -97.0436 -161.783 -98.2782 -163.224C-99.1654 -164.259 -99.9054 -165.455 -100.623 -166.613C-100.822 -166.934 -101.02 -167.254 -101.222 -167.571C-102.578 -169.707 -103.402 -172.208 -103.74 -175.221C-104.09 -178.341 -103.962 -181.574 -103.837 -184.701C-103.793 -185.799 -103.748 -186.937 -103.724 -188.053C-103.628 -192.553 -103.729 -198.428 -105.379 -203.949C-105.723 -205.101 -106.19 -206.222 -106.64 -207.305C-106.845 -207.796 -107.057 -208.304 -107.253 -208.807C-107.3 -208.929 -107.438 -208.989 -107.559 -208.942C-107.681 -208.895 -107.741 -208.757 -107.693 -208.635C-107.495 -208.128 -107.282 -207.617 -107.076 -207.124C-106.629 -206.052 -106.169 -204.944 -105.831 -203.815C-104.2 -198.357 -104.101 -192.531 -104.196 -188.064C-104.22 -186.952 -104.265 -185.819 -104.309 -184.722C-104.433 -181.577 -104.563 -178.325 -104.209 -175.17C-103.862 -172.084 -103.016 -169.516 -101.62 -167.318C-101.419 -167.003 -101.222 -166.684 -101.024 -166.364C-100.297 -165.191 -99.5444 -163.978 -98.6373 -162.917C-97.3839 -161.454 -95.8969 -159.785 -94.1016 -158.511C-92.1409 -157.119 -89.6138 -156.76 -86.1514 -157.382C-84.6246 -157.657 -83.0744 -157.679 -81.7599 -157.666C-78.7555 -157.635 -76.578 -156.241 -75.1026 -153.406C-74.4761 -152.201 -73.6842 -151.075 -72.9189 -149.984C-72.7804 -149.787 -72.6419 -149.589 -72.5041 -149.392C-72.3312 -149.145 -72.1601 -148.896 -71.989 -148.647C-71.1922 -147.488 -70.3675 -146.288 -69.4181 -145.22C-66.2801 -141.689 -62.8105 -139.555 -58.8134 -138.696C-55.747 -138.036 -52.5613 -138.407 -49.5761 -138.906C-45.2614 -139.626 -41.4362 -139.843 -37.8841 -139.569C-34.7634 -139.329 -31.5803 -139.147 -28.5008 -138.971L-27.8911 -138.937C-26.972 -138.885 -26.0341 -138.85 -25.1273 -138.817C-23.7008 -138.765 -22.2274 -138.711 -20.7943 -138.585C-15.3811 -138.109 -10.2731 -136.425 -5.61168 -133.582C-3.46097 -132.271 -1.50881 -130.756 0.187877 -129.081C0.665583 -128.609 1.14605 -128.139 1.62728 -127.668C2.67442 -126.643 3.75672 -125.583 4.79932 -124.522C6.33725 -122.955 7.71916 -121.499 9.02052 -120.069C9.31964 -119.741 9.62228 -119.414 9.92583 -119.087C11.0179 -117.911 12.147 -116.694 13.0887 -115.381C14.8568 -112.918 16.8165 -109.942 17.9438 -106.549C18.471 -104.962 19.054 -103.111 19.3048 -101.22C19.6212 -98.8347 18.8679 -96.3705 16.9342 -93.4683C14.857 -90.351 13.5081 -87.1243 12.8103 -83.6056C12.697 -83.0319 12.5875 -82.4461 12.4818 -81.8801C11.9393 -78.975 11.3789 -75.97 9.96596 -73.198C8.69131 -70.6963 7.1767 -68.234 5.71103 -65.8539L5.5663 -65.6178C3.79885 -62.7449 2.02662 -59.647 1.45893 -56.1496C1.08934 -53.874 1.45314 -51.8638 2.53824 -50.1735C3.30824 -48.974 4.62766 -48.1489 6.35235 -47.792C9.05456 -47.2317 11.9365 -47.8295 15.4212 -49.673C17.4132 -50.7266 19.2774 -52.0489 20.8389 -53.2025C22.1463 -54.1689 23.4429 -55.1936 24.6973 -56.1842C26.1798 -57.3547 27.7119 -58.5654 29.2655 -59.6837C34.2665 -63.2833 38.3235 -65.657 42.4217 -67.3808C45.8434 -68.8195 49.4446 -70.5377 54.0979 -72.95L54.3309 -73.0714C56.5713 -74.233 58.6866 -75.3314 61.0194 -76.037C62.9137 -76.6104 64.499 -76.5235 65.729 -75.777C66.9107 -75.0601 67.7194 -73.7303 68.0646 -71.9308C68.6146 -69.0708 68.4551 -65.9571 67.5781 -62.4138C66.7871 -59.2207 65.8174 -55.9928 64.8797 -52.8701C64.5385 -51.7369 64.1865 -50.5644 63.8482 -49.4107C63.5324 -48.3362 63.2183 -47.2615 62.9049 -46.1859C61.786 -42.3538 60.6283 -38.3912 59.4192 -34.509C58.432 -31.3386 57.4037 -27.6424 57.6986 -23.8882C57.9027 -21.2867 58.5758 -18.868 59.6986 -16.6973C60.9631 -14.2538 62.5236 -11.9552 64.3355 -9.86619C65.435 -8.59931 66.5933 -7.34799 67.7139 -6.13777C68.369 -5.42947 69.0454 -4.69868 69.7029 -3.97246C70.0472 -3.5921 70.4094 -3.21572 70.7604 -2.85148C71.6339 -1.94468 72.537 -1.00694 73.2078 0.0455739C75.0102 2.87592 76.6589 5.8825 78.2532 8.78811L78.4684 9.17985C78.9552 10.067 79.4037 11.0006 79.8375 11.9047C80.3578 12.9891 80.896 14.1107 81.5083 15.1678C82.4424 16.7805 83.5613 18.4207 84.9261 20.1806C86.9189 22.7486 89.6393 24.8712 93.0086 26.4871C97.4713 28.6259 102.38 30.3447 107.596 31.5949C109.219 31.9848 110.915 32.2417 112.555 32.4902C113.294 32.6024 114.06 32.7183 114.806 32.8447C117.169 33.2449 119.088 34.2564 120.672 35.9363C124.247 39.7271 128.048 42.3832 132.292 44.0567C135.501 45.3229 138.897 46.3398 142.178 47.3234L143.266 47.6497C145.238 48.2427 147.272 48.9871 148.782 50.4033C150.144 51.6807 150.847 53.5185 150.929 56.0219C150.991 57.9088 150.979 59.8415 150.967 61.7103C150.961 62.7415 150.954 63.8071 150.96 64.8547C150.978 68.0522 152.244 70.8974 154.829 73.5534C155.274 74.011 155.745 74.4563 156.199 74.8864C156.698 75.3582 157.214 75.847 157.694 76.3489C159.582 78.3232 160.631 80.9607 160.997 84.651C161.541 90.1345 161.334 95.7805 160.381 101.429C159.589 106.124 158.073 110.994 155.611 116.756C154.811 118.63 153.933 120.516 153.086 122.339C151.507 125.735 149.875 129.246 148.658 132.835C147.205 137.12 146.788 140.585 147.34 143.737C147.718 145.893 148.57 147.791 149.885 149.416L149.886 149.416Z" fill="white"/>
<path d="M-148.69 -82.9634C-147.124 -81.0287 -144.956 -79.7818 -142.128 -79.181C-137.344 -78.1623 -132.503 -79.4781 -128.82 -80.7373C-126.142 -81.6532 -123.44 -82.6582 -120.827 -83.63C-119.044 -84.2929 -117.201 -84.9778 -115.382 -85.6291C-111.197 -87.1272 -106.496 -88.1198 -100.591 -88.7523C-95.9675 -89.2481 -92.1633 -89.4742 -88.6199 -89.4649C-83.7653 -89.4519 -79.2651 -88.5436 -73.8867 -87.3593C-67.8979 -86.0404 -62.1131 -84.3201 -56.6937 -82.2476C-53.8817 -81.1722 -51.1595 -80.0652 -48.7777 -78.3534C-46.9987 -77.0751 -45.6045 -75.5754 -44.5147 -73.7684C-41.597 -68.9306 -41.5106 -63.2445 -41.6586 -58.2932C-41.9258 -49.3654 -42.3035 -40.4595 -42.782 -31.8228C-42.9908 -28.0546 -43.2964 -24.0173 -44.1177 -20.0296C-44.8612 -16.4189 -45.889 -12.7672 -46.8825 -9.23641C-47.2847 -7.80676 -47.7014 -6.32731 -48.0928 -4.87125C-48.8854 -1.924 -49.4199 0.555227 -49.4501 3.07936C-49.4616 4.05861 -49.2622 5.12194 -48.8738 6.15594C-48.6475 6.75674 -48.154 7.20698 -47.4838 7.42118C-46.5785 7.71195 -45.4747 7.52499 -44.6016 6.93448C-43.7313 6.34623 -42.8837 5.69999 -42.0624 5.07363C-41.4631 4.6162 -40.842 4.1426 -40.2197 3.69855L-39.52 3.198C-37.1674 1.51404 -34.7349 -0.226941 -32.2992 -1.8683C-30.4649 -3.10544 -28.4815 -4.4007 -26.4163 -5.49522C-24.7329 -6.38753 -23.4238 -6.8428 -22.2952 -6.92781C-20.1256 -7.08956 -18.5174 -6.11229 -17.0832 -3.75576C-15.211 -0.681439 -14.2015 2.72023 -13.4619 5.64181C-12.8283 8.14128 -12.3478 10.5999 -13.4008 13.1952C-14.2212 15.2179 -15.4637 16.6793 -17.2002 17.6619C-20.2013 19.3612 -23.0818 21.1458 -25.2558 22.5114C-26.755 23.453 -28.4539 24.5195 -29.9542 25.7807C-32.623 28.0241 -34.3514 30.6016 -35.0926 33.4432C-35.7881 36.1122 -34.8881 38.2969 -32.5575 39.5941C-29.2764 41.4202 -26.5132 42.8783 -23.8621 44.183C-20.6426 45.7676 -17.4784 47.3008 -14.1589 48.6428C-11.2819 49.806 -8.10394 50.5731 -4.71453 50.9235C1.19292 51.5335 7.74423 51.4181 15.9037 50.5596C20.6176 50.0626 25.3157 48.8098 29.8581 47.5975C32.497 46.8928 35.6166 46.1774 38.7351 46.2118C42.0376 46.2483 44.8606 47.2416 47.1265 49.1631C50.1773 51.7504 52.267 55.364 53.7032 60.5343C54.8508 64.6662 54.6371 69.1888 53.0311 74.7663C52.7734 75.661 52.4976 76.569 52.2316 77.4477C51.263 80.6411 50.2595 83.9437 49.9135 87.2831C49.3633 92.5919 49.7914 96.4655 51.3041 99.8429C53.1199 103.899 56.1263 105.827 60.4961 105.737C63.6822 105.671 66.755 104.668 69.7277 103.698L70.0402 103.596C72.7925 102.699 75.599 101.92 78.3835 101.28C79.2454 101.082 80.1905 101.217 81.1033 101.346C81.2426 101.366 81.3819 101.386 81.5196 101.404C82.2581 101.504 82.7668 101.839 82.993 102.376C83.25 102.989 83.0979 103.783 82.5966 104.448C81.9529 105.301 81.3725 106.144 80.8703 106.957C78.972 110.028 78.2457 113.409 78.6508 117.293L78.6708 117.481C78.989 120.532 79.3182 123.688 79.5111 126.811C79.8396 132.133 78.1959 137.335 76.3714 142.164C75.4232 144.673 74.0397 147.048 72.7015 149.343C71.7958 150.898 70.8586 152.506 70.0611 154.145C68.9287 156.475 68.5676 158.474 68.9251 160.431C69.2603 162.271 70.2516 163.697 71.7158 164.449C73.2463 165.235 75.1041 165.183 76.9477 164.303C78.1381 163.735 79.282 163.015 80.3881 162.319C80.9849 161.943 81.6022 161.554 82.2165 161.196C86.2197 158.863 89.6776 157.627 93.0998 157.304C96.2134 157.012 98.3308 157.362 100.18 158.474C101.518 159.278 102.474 160.424 103.189 162.081C105.091 166.488 106.734 171.471 108.212 177.316C108.866 179.899 108.804 182.675 108.658 185.052L108.646 185.23C108.52 187.286 108.389 189.413 108.424 191.489C108.467 194.037 109.298 196.443 110.965 198.841C112.469 201.006 114.176 202.562 116.184 203.597C118.827 204.961 121.62 205.401 124.486 204.907C126.974 204.476 129.013 204.059 130.902 203.592C134.73 202.645 138.481 201.798 142.291 201.831C146.536 201.866 150.296 203.138 153.467 205.611C155.409 207.125 156.82 209.225 157.781 212.033C157.952 212.534 158.122 213.035 158.292 213.537C159.04 215.74 159.813 218.018 160.678 220.211C162.756 225.482 165.8 227.342 171.912 227.076C175.282 226.929 177.799 227.719 179.604 229.49C181.185 231.039 182.818 232.737 184.068 234.649C186.736 238.733 189.056 242.983 190.962 247.28C191.691 248.923 192.466 250.576 193.215 252.174C194.239 254.358 195.299 256.617 196.253 258.879C197.841 262.645 197.972 266.751 196.652 271.434C195.953 273.915 195.224 276.801 195.422 279.652C195.581 281.92 196.347 284.05 197.699 285.982C197.917 286.293 198.135 286.614 198.345 286.925C199.033 287.94 199.745 288.99 200.595 289.899C201.915 291.311 203.343 292.664 204.724 293.973C205.253 294.474 205.8 294.993 206.332 295.506C208.552 297.646 211.126 299.435 214.204 300.973C216.088 301.913 218.286 302.532 221.122 302.92C223.775 303.284 226.376 303.601 229.257 303.948C233.483 304.457 236.921 306.517 240.008 308.668L240.522 309.027C243.753 311.281 247.095 313.612 250.962 315.086C254.384 316.39 257.935 317.767 261.819 319.295C262.254 319.467 262.676 319.701 263.083 319.926C263.276 320.033 263.475 320.144 263.676 320.248C263.792 320.309 263.935 320.263 263.995 320.148C264.055 320.032 264.009 319.889 263.893 319.829C263.699 319.728 263.502 319.619 263.312 319.514C262.891 319.281 262.456 319.039 261.992 318.857C258.106 317.328 254.552 315.95 251.129 314.646C247.316 313.194 243.999 310.88 240.791 308.642L240.277 308.283C237.14 306.097 233.64 304.003 229.311 303.482C226.432 303.135 223.834 302.819 221.183 302.456C218.401 302.075 216.25 301.471 214.414 300.553C211.379 299.037 208.842 297.277 206.659 295.17C206.125 294.655 205.578 294.136 205.049 293.634C203.673 292.33 202.251 290.982 200.939 289.581C200.114 288.699 199.413 287.665 198.735 286.665C198.523 286.353 198.305 286.03 198.085 285.717C196.782 283.856 196.044 281.807 195.892 279.627C195.699 276.851 196.417 274.013 197.106 271.57C198.456 266.781 198.319 262.572 196.687 258.703C195.729 256.432 194.667 254.169 193.641 251.981C192.893 250.386 192.118 248.736 191.392 247.097C189.475 242.776 187.144 238.504 184.462 234.399C183.188 232.448 181.533 230.728 179.933 229.16C178.028 227.291 175.396 226.458 171.888 226.61C165.947 226.869 163.127 225.152 161.116 220.046C160.254 217.862 159.483 215.59 158.738 213.393C158.567 212.891 158.397 212.389 158.226 211.889C157.234 208.99 155.77 206.817 153.754 205.244C150.5 202.707 146.643 201.401 142.292 201.364C138.427 201.331 134.643 202.185 130.786 203.138C128.908 203.602 126.879 204.018 124.402 204.447C121.64 204.924 118.947 204.5 116.398 203.184C114.462 202.184 112.81 200.678 111.352 198.579C109.74 196.26 108.936 193.941 108.895 191.489C108.86 189.432 108.99 187.315 109.116 185.267L109.127 185.089C109.275 182.677 109.336 179.853 108.667 177.208C107.182 171.337 105.531 166.33 103.62 161.901C102.874 160.172 101.827 158.921 100.419 158.074C97.9625 156.597 95.1905 156.637 93.0503 156.839C89.5569 157.168 86.038 158.424 81.9739 160.793C81.3525 161.156 80.7315 161.547 80.1312 161.924C79.0368 162.613 77.9046 163.326 76.739 163.882C75.0309 164.697 73.3225 164.751 71.9263 164.033C70.5971 163.35 69.6952 162.044 69.3866 160.354C69.0487 158.5 69.3966 156.595 70.4831 154.359C71.2723 152.735 72.2053 151.135 73.1068 149.588C74.4543 147.276 75.848 144.884 76.8102 142.338C78.6532 137.461 80.3122 132.201 79.9795 126.789C79.7859 123.656 79.4564 120.495 79.1379 117.439L79.1179 117.251C78.7241 113.476 79.4279 110.192 81.2703 107.212C81.7645 106.413 82.337 105.581 82.9719 104.739C83.5746 103.94 83.7487 102.967 83.4269 102.199C83.1368 101.508 82.4808 101.06 81.5787 100.94C81.4425 100.922 81.305 100.902 81.1657 100.882C80.2097 100.747 79.2207 100.606 78.2736 100.823C75.4762 101.466 72.6558 102.248 69.8904 103.15L69.5779 103.252C66.5032 104.256 63.5995 105.202 60.4825 105.267C56.3244 105.353 53.4624 103.517 51.7334 99.6542C50.257 96.3573 49.8405 92.5581 50.3815 87.3375C50.7228 84.0431 51.7182 80.7624 52.6812 77.5902C52.9491 76.7101 53.2243 75.7995 53.483 74.9024C55.1142 69.2358 55.328 64.6324 54.1559 60.412C52.6935 55.1455 50.5552 51.4569 47.4295 48.8051C45.077 46.8103 42.1518 45.7792 38.7368 45.7407C35.5612 45.7052 32.4029 46.4291 29.7328 47.1422C25.2077 48.3496 20.5278 49.5985 15.8496 50.0909C7.72323 50.947 1.20221 51.0623 -4.67103 50.4552C-8.01551 50.1096 -11.15 49.353 -13.9859 48.2069C-17.2916 46.8706 -20.447 45.3409 -23.6577 43.7614C-26.3016 42.46 -29.0576 41.0052 -32.3316 39.1841C-34.4865 37.9857 -35.283 36.0436 -34.637 33.5687C-33.9219 30.8244 -32.2439 28.3274 -29.6516 26.1491C-28.1763 24.9095 -26.4917 23.8516 -25.006 22.9179C-22.8356 21.5552 -19.9614 19.7741 -16.9691 18.0789C-15.137 17.0418 -13.8268 15.5043 -12.9647 13.3792C-11.8587 10.6541 -12.3787 8.00775 -13.0062 5.53081C-13.7547 2.57378 -14.7776 -0.870541 -16.683 -3.99724C-17.6393 -5.56604 -19.2649 -7.62584 -22.3367 -7.396C-23.5314 -7.30632 -24.9003 -6.8347 -26.6432 -5.91091C-28.7272 -4.80579 -30.7233 -3.50183 -32.5685 -2.25744C-35.0096 -0.6116 -37.445 1.13161 -39.8011 2.81687L-40.5007 3.3174C-41.1285 3.76591 -41.7515 4.24102 -42.3545 4.70146C-43.1702 5.32336 -44.0133 5.96585 -44.8718 6.54611C-45.6272 7.05666 -46.5747 7.22088 -47.3458 6.97396C-47.875 6.80436 -48.263 6.45636 -48.4364 5.99421C-48.8044 5.01544 -48.9939 4.01121 -48.9819 3.09093C-48.9528 0.618014 -48.4241 -1.82902 -47.6402 -4.74186C-47.2498 -6.19548 -46.8333 -7.67329 -46.4313 -9.10127C-45.4353 -12.6402 -44.4049 -16.3 -43.658 -19.9271C-42.8301 -23.9462 -42.5225 -28.0035 -42.3135 -31.7902C-41.8346 -40.4302 -41.4573 -49.3403 -41.1905 -58.2724C-41.0399 -63.2899 -41.1294 -69.0588 -44.1148 -74.0066C-45.2383 -75.8702 -46.6758 -77.4158 -48.5071 -78.7326C-50.9351 -80.4771 -53.6878 -81.5975 -56.5306 -82.6846C-61.9719 -84.7653 -67.7787 -86.4922 -73.7913 -87.8161C-79.1978 -89.0069 -83.7227 -89.9195 -88.6252 -89.9333C-92.1861 -89.9437 -96.0073 -89.7161 -100.648 -89.2188C-106.592 -88.582 -111.327 -87.5814 -115.547 -86.0702C-117.369 -85.4183 -119.213 -84.7327 -120.998 -84.0683C-123.609 -83.098 -126.307 -82.0934 -128.979 -81.1802C-132.604 -79.9401 -137.365 -78.6443 -142.036 -79.6383C-145.821 -80.4436 -148.373 -82.448 -149.839 -85.7657C-151.148 -88.7299 -151.27 -92.1187 -150.224 -96.4291C-149.475 -99.5149 -148.043 -102.51 -146.658 -105.407C-146.378 -105.992 -146.089 -106.598 -145.81 -107.194C-144.022 -111.016 -142.96 -114.18 -142.467 -117.151C-141.944 -120.314 -141.494 -123.53 -141.123 -126.259C-140.934 -127.652 -140.777 -129.068 -140.626 -130.436C-140.54 -131.218 -140.451 -132.026 -140.357 -132.82C-139.738 -138.024 -140.265 -143.293 -142.015 -149.4C-143.228 -153.636 -144.413 -158.209 -145.742 -163.791C-145.953 -164.677 -146.156 -165.583 -146.351 -166.459C-147.003 -169.374 -147.678 -172.388 -148.775 -175.209C-148.822 -175.331 -148.96 -175.392 -149.082 -175.346C-149.203 -175.299 -149.264 -175.161 -149.217 -175.039C-148.133 -172.252 -147.462 -169.255 -146.814 -166.358C-146.617 -165.481 -146.414 -164.573 -146.202 -163.684C-144.871 -158.095 -143.685 -153.516 -142.47 -149.273C-140.738 -143.227 -140.217 -138.018 -140.828 -132.878C-140.922 -132.082 -141.012 -131.273 -141.099 -130.49C-141.25 -129.124 -141.406 -127.713 -141.594 -126.325C-141.964 -123.599 -142.413 -120.387 -142.936 -117.231C-143.428 -114.263 -144.446 -111.231 -146.241 -107.396C-146.52 -106.802 -146.809 -106.197 -147.088 -105.613C-148.483 -102.695 -149.926 -99.6777 -150.685 -96.5435C-151.757 -92.1256 -151.627 -88.6408 -150.274 -85.5767C-149.841 -84.5943 -149.316 -83.7225 -148.698 -82.9584L-148.69 -82.9634Z" fill="white"/>
<path d="M155.45 146.178C156.686 147.705 158.274 148.663 159.651 149.362C162.51 150.815 165.947 151.751 170.467 152.311C172.812 152.6 175.206 152.855 177.52 153.099C180.818 153.449 184.228 153.81 187.549 154.283C192.933 155.05 198.37 155.972 203.628 156.863C205.137 157.119 206.645 157.375 208.154 157.627C213.74 158.562 219.503 158.366 225.77 157.026C230.211 156.078 235.373 155.105 240.416 155.579C244.404 155.954 247.44 157.196 249.699 159.375C252.834 162.399 253.777 166.331 252.503 171.058C251.327 175.419 248.584 179.183 246.164 182.505L245.453 183.48C243.597 186.023 241.678 188.652 239.921 191.315C238 194.229 236.633 197.569 235.86 201.245C234.798 206.303 234.672 211.661 235.464 218.105C236.199 224.082 237 229.916 238.676 235.586C239.776 239.305 241.088 242.43 242.688 245.139C243.366 246.289 244.076 247.446 244.762 248.564C245.321 249.475 245.899 250.419 246.457 251.351C248.359 254.532 250.667 257.613 253.319 260.512C255.582 262.985 257.582 264.903 259.61 266.544C263.086 269.356 266.981 271.608 271.517 273.429C275.214 274.913 279.223 275.904 283.772 276.46C287.261 276.887 290.492 276.81 293.648 276.226C296.37 275.722 299.081 274.568 301.705 272.794C302.556 272.218 303.415 271.621 304.245 271.044C305.601 270.101 307.001 269.126 308.409 268.22C312.421 265.636 316.805 263.079 321.673 261.87C326.43 260.688 330.64 260.858 334.544 262.389C334.604 262.412 334.668 262.465 334.734 262.519C334.775 262.553 334.817 262.586 334.86 262.616C334.966 262.691 335.114 262.666 335.19 262.559C335.265 262.453 335.239 262.305 335.132 262.229C335.098 262.205 335.065 262.178 335.031 262.151C334.942 262.079 334.842 261.998 334.715 261.948C330.772 260.401 326.345 260.22 321.556 261.409C316.621 262.636 312.196 265.216 308.15 267.821C306.736 268.732 305.331 269.709 303.973 270.654C303.144 271.23 302.286 271.826 301.438 272.4C298.868 274.137 296.217 275.267 293.558 275.759C290.45 276.334 287.266 276.409 283.826 275.988C279.318 275.437 275.348 274.455 271.69 272.987C267.199 271.184 263.344 268.956 259.905 266.174C257.894 264.547 255.912 262.646 253.666 260.191C251.036 257.316 248.746 254.259 246.861 251.107C246.302 250.172 245.723 249.227 245.163 248.315C244.478 247.198 243.769 246.044 243.093 244.897C241.514 242.221 240.217 239.132 239.128 235.451C237.461 229.816 236.666 224.004 235.932 218.047C235.146 211.655 235.269 206.347 236.321 201.341C237.082 197.724 238.425 194.439 240.313 191.574C242.064 188.921 243.98 186.296 245.832 183.757L246.544 182.781C248.988 179.426 251.758 175.625 252.957 171.18C254.28 166.273 253.293 162.186 250.024 159.031C247.684 156.775 244.555 155.489 240.456 155.105C235.346 154.624 230.143 155.604 225.667 156.559C219.459 157.885 213.754 158.08 208.229 157.155C206.719 156.903 205.211 156.647 203.702 156.391C198.441 155.5 193 154.576 187.61 153.81C184.281 153.336 180.866 152.974 177.564 152.624C175.251 152.379 172.859 152.126 170.519 151.837C166.056 151.284 162.67 150.363 159.861 148.936C157.002 147.484 155.343 145.824 154.48 143.554C153.456 140.859 153.599 137.874 154.933 134.159C156.526 129.722 158.348 125.257 160.11 120.938C160.417 120.188 160.721 119.438 161.026 118.688C163.289 113.123 164.869 108.159 165.858 103.514C166.383 101.044 166.766 98.5218 167.135 96.0829C167.252 95.3127 167.368 94.5416 167.49 93.772C167.648 92.7623 167.81 91.7529 167.971 90.7426C168.555 87.0777 169.161 83.289 169.651 79.5585C170.144 75.809 170.129 72.9535 169.605 70.3C169.062 67.5518 167.928 65.1232 167.002 63.3135C165.485 60.354 164.502 56.9863 163.995 53.0158C163.628 50.1317 163.246 47.1492 162.105 44.3588C160.993 41.6379 159.181 39.3276 156.722 37.4913C154.563 35.8783 152.022 34.8439 149.567 33.8429L149.535 33.8303C147.429 32.9721 145.035 31.902 143.264 30.0454C141.736 28.4447 140.291 26.7132 138.893 25.0381L138.684 24.7876C137.552 23.4322 136.109 22.4205 134.846 21.5787C132.053 19.7176 128.603 18.7252 124.301 18.5444C120.712 18.3938 117.026 18.497 113.462 18.5974L112.716 18.6183C107.806 18.7552 102.241 18.91 96.9054 18.0265C92.5912 17.3124 89.5136 15.4468 87.494 12.3255C86.3303 10.5249 85.4394 8.65006 84.7723 6.59558C83.2615 1.94163 81.55 -3.33229 79.9567 -8.57835C78.1883 -14.4071 77.8647 -20.0369 78.969 -25.7895C79.5846 -28.9948 80.0855 -32.2612 80.5699 -35.4183L80.6115 -35.6899C81.2092 -39.5821 80.906 -43.5737 79.6863 -47.8942C78.283 -52.8623 77.8954 -57.5817 78.5003 -62.3232C78.6034 -63.1311 78.709 -63.9395 78.8156 -64.7486C79.1865 -67.5728 79.569 -70.4934 79.811 -73.3643C80.1009 -76.82 80.1966 -81.2989 78.3427 -85.2878C76.9798 -88.2191 74.966 -90.1539 72.1865 -91.2022C68.756 -92.4956 65.2776 -91.9794 62.0306 -91.2281C60.7816 -90.9389 59.5153 -90.6204 58.2921 -90.3124C57.0975 -90.0123 55.8631 -89.7013 54.6467 -89.4187C53.3391 -89.1156 51.6164 -88.8015 49.8741 -89.0618C46.9622 -89.4982 45.0949 -91.3609 43.7924 -92.9349C42.5886 -94.3889 41.4649 -95.958 40.3785 -97.4734C39.4312 -98.7963 38.4506 -100.164 37.4185 -101.456C34.4897 -105.123 31.4075 -108.739 28.2438 -112.429C26.9183 -113.975 25.5052 -115.487 24.1374 -116.95C23.7368 -117.38 23.3353 -117.808 22.9357 -118.238C22.2878 -118.936 21.6209 -119.636 20.9752 -120.314C20.2065 -121.119 19.412 -121.953 18.6478 -122.786C18.2396 -123.231 17.8304 -123.675 17.422 -124.117C15.8388 -125.832 14.202 -127.605 12.6804 -129.418C11.3766 -130.971 10.0865 -132.582 8.83872 -134.139C7.39956 -135.937 5.91123 -137.795 4.39148 -139.578C2.94291 -141.276 1.29379 -142.938 -0.651166 -144.66C-3.73812 -147.394 -7.59853 -149.337 -12.4546 -150.602L-12.5512 -150.628C-15.3021 -151.344 -18.1462 -152.085 -20.7974 -153.097C-24.5849 -154.542 -27.6543 -157.128 -30.6239 -159.63L-31.0727 -160.009C-32.0625 -160.841 -33.0817 -161.673 -34.0668 -162.477C-34.7542 -163.037 -35.4638 -163.618 -36.1573 -164.191L-36.3107 -164.319C-37.4901 -165.294 -38.7098 -166.302 -39.1931 -167.776C-39.8502 -169.78 -39.912 -172.009 -39.3776 -174.398C-38.68 -177.517 -37.3396 -180.555 -36.0442 -183.493C-35.9012 -183.818 -35.7581 -184.143 -35.616 -184.467C-35.5068 -184.717 -35.3936 -184.965 -35.2796 -185.213C-34.6176 -186.665 -33.932 -188.167 -34.091 -189.823C-34.3789 -192.817 -35.0327 -194.934 -36.2081 -196.687C-36.9318 -197.766 -37.6429 -198.575 -38.3814 -199.161C-40.7638 -201.054 -43.7623 -201.678 -47.2943 -201.018C-49.6527 -200.577 -52.4285 -200.208 -55.1222 -200.818C-59.944 -201.91 -64.1711 -203.108 -67.049 -206.73C-68.5799 -208.656 -69.498 -210.465 -69.9354 -212.422C-70.6218 -215.491 -70.3629 -218.745 -70.1117 -221.892L-70.0897 -222.169C-69.7915 -225.924 -70.0224 -228.713 -70.8378 -231.212C-71.2528 -232.483 -71.7455 -233.746 -72.2215 -234.965C-72.4342 -235.51 -72.6543 -236.073 -72.8643 -236.629C-72.9104 -236.752 -73.047 -236.813 -73.1696 -236.768C-73.2921 -236.722 -73.3534 -236.585 -73.3072 -236.463C-73.0967 -235.904 -72.8751 -235.339 -72.6625 -234.793C-72.1884 -233.579 -71.6984 -232.324 -71.2879 -231.066C-70.4921 -228.629 -70.2688 -225.896 -70.5619 -222.208L-70.5838 -221.931C-70.837 -218.749 -71.0997 -215.459 -70.3969 -212.32C-69.9434 -210.291 -68.9963 -208.422 -67.4185 -206.436C-67.3947 -206.406 -67.3708 -206.377 -67.3477 -206.348C-64.3735 -202.673 -60.0969 -201.458 -55.2239 -200.356C-52.4463 -199.727 -49.611 -200.103 -47.2046 -200.552C-43.8141 -201.186 -40.9428 -200.593 -38.6739 -198.79C-37.9735 -198.235 -37.2957 -197.461 -36.5997 -196.424C-35.4694 -194.74 -34.8404 -192.691 -34.5609 -189.778C-34.414 -188.249 -35.0423 -186.869 -35.7093 -185.41C-35.8236 -185.159 -35.9378 -184.909 -36.0481 -184.657C-36.1902 -184.333 -36.3332 -184.008 -36.476 -183.685C-37.7804 -180.727 -39.1306 -177.667 -39.8378 -174.503C-40.3911 -172.03 -40.3245 -169.717 -39.6398 -167.629C-39.1146 -166.024 -37.8406 -164.972 -36.6084 -163.954L-36.4558 -163.828C-35.7607 -163.252 -35.0494 -162.672 -34.3621 -162.111C-33.3778 -161.308 -32.36 -160.478 -31.3734 -159.648L-30.9246 -159.27C-27.9256 -156.743 -24.8237 -154.13 -20.9617 -152.656C-18.2863 -151.635 -15.429 -150.89 -12.665 -150.171L-12.5683 -150.146C-7.78692 -148.899 -3.99032 -146.99 -0.960265 -144.308C0.96781 -142.601 2.60166 -140.954 4.0351 -139.272C5.55039 -137.496 7.0365 -135.64 8.47267 -133.846C9.72178 -132.286 11.0143 -130.673 12.3218 -129.116C13.8518 -127.294 15.4916 -125.517 17.0785 -123.798C17.4877 -123.355 17.8961 -122.912 18.3036 -122.468C19.0716 -121.632 19.8669 -120.797 20.6371 -119.99C21.2813 -119.314 21.9484 -118.615 22.5939 -117.919C22.9943 -117.488 23.3948 -117.059 23.797 -116.629C25.1611 -115.171 26.5713 -113.662 27.8891 -112.124C31.0498 -108.437 34.1298 -104.824 37.0534 -101.164C38.078 -99.8808 39.0549 -98.5177 39.9994 -97.2002C41.0901 -95.6775 42.2207 -94.1018 43.4333 -92.6351C44.7894 -90.9948 46.7395 -89.0541 49.8105 -88.594C51.6314 -88.321 53.4115 -88.6449 54.7597 -88.958C55.9803 -89.241 57.2172 -89.5526 58.4137 -89.8542C59.636 -90.1614 60.899 -90.4803 62.1435 -90.7674C65.3181 -91.5013 68.713 -92.0078 72.0253 -90.7592C74.6835 -89.7576 76.6113 -87.9026 77.9183 -85.0893C79.7255 -81.2014 79.6298 -76.8032 79.3442 -73.406C79.1042 -70.5459 78.7214 -67.6312 78.351 -64.812C78.2445 -64.0028 78.1388 -63.1944 78.0356 -62.3849C77.4232 -57.5794 77.8153 -52.7981 79.2365 -47.7666C80.437 -43.513 80.736 -39.5866 80.1497 -35.763L80.1081 -35.4914C79.624 -32.3377 79.1237 -29.0762 78.5098 -25.88C77.3908 -20.0499 77.7176 -14.3465 79.5093 -8.44208C81.103 -3.19178 82.8158 2.08565 84.3273 6.74053C85.0071 8.83509 85.9146 10.7454 87.1024 12.5814C87.3592 12.9776 87.6313 13.3553 87.9199 13.712C89.9954 16.2771 92.9255 17.8457 96.8344 18.4927C102.215 19.3843 107.803 19.2287 112.735 19.0908L113.481 19.0699C117.037 18.9696 120.714 18.8662 124.287 19.0167C128.501 19.194 131.87 20.1608 134.589 21.9719C135.825 22.7956 137.235 23.7836 138.325 25.0899L138.534 25.3404C139.937 27.0211 141.388 28.76 142.926 30.3719C144.763 32.2961 147.212 33.3923 149.363 34.2688L149.394 34.2815C151.822 35.271 154.334 36.2939 156.444 37.8697C158.834 39.6546 160.593 41.8979 161.672 44.537C162.789 47.2702 163.166 50.2201 163.531 53.0745C164.045 57.1013 165.044 60.5204 166.586 63.529C167.5 65.3112 168.616 67.7008 169.147 70.3913C169.661 72.9924 169.674 75.8006 169.189 79.4963C168.7 83.2193 168.096 87.0057 167.511 90.6679C167.35 91.6782 167.189 92.6885 167.03 93.6991C166.909 94.4696 166.792 95.2414 166.675 96.0133C166.306 98.4455 165.925 100.961 165.402 103.417C164.42 108.034 162.847 112.971 160.595 118.51C160.29 119.26 159.984 120.009 159.678 120.759C157.914 125.082 156.09 129.551 154.493 133.998C153.119 137.825 152.975 140.915 154.043 143.722C154.406 144.676 154.894 145.484 155.452 146.175L155.45 146.178Z" fill="white"/>
<path d="M-151.789 -80.1965C-149.539 -77.4158 -146.281 -75.8228 -142.068 -75.4521C-136.465 -74.959 -130.977 -76.6892 -126.274 -78.3488C-124.927 -78.8244 -123.561 -79.3224 -122.24 -79.8042C-119.575 -80.7771 -116.819 -81.7823 -114.083 -82.6492C-108.922 -84.2841 -103.603 -84.8381 -99.0797 -85.1637C-96.3114 -85.363 -93.0937 -85.5722 -89.9258 -85.5274C-84.0126 -85.4437 -78.4178 -84.2774 -71.8378 -82.5508C-66.098 -81.0457 -61.2235 -79.3894 -56.9357 -77.4873C-54.3619 -76.3457 -52.3948 -75.2348 -50.7467 -73.9924C-48.462 -72.2691 -46.9552 -69.7121 -46.1396 -66.1764C-45.2632 -62.3741 -45.352 -58.4651 -45.5315 -54.4597C-45.8335 -47.7533 -46.1815 -41.0097 -46.5664 -34.4132C-46.7383 -31.4708 -46.9645 -29.2076 -47.2989 -27.0763C-48.0822 -22.0914 -49.7087 -16.819 -52.4173 -10.4821C-54.003 -6.7725 -55.4593 -2.94047 -56.7448 0.907431C-58.8968 7.34617 -58.8079 13.5105 -56.4803 19.2284C-56.0069 20.3919 -55.3296 21.4712 -54.6755 22.5144C-54.3743 22.9936 -54.064 23.4898 -53.7786 23.9833C-53.5089 24.4499 -53.2174 24.9079 -52.9351 25.3506C-52.2838 26.3716 -51.61 27.4278 -51.2026 28.628C-50.5774 30.4692 -50.7705 32.3489 -50.9757 34.3375C-51.0092 34.6604 -51.0417 34.9826 -51.0719 35.306L-51.1051 35.6668C-51.3026 37.8002 -51.506 40.0069 -51.0451 42.1352C-50.323 45.469 -48.036 47.471 -44.4326 47.9244C-42.2228 48.203 -39.9565 47.9447 -37.7645 47.6962C-37.1354 47.6248 -36.4841 47.5509 -35.8477 47.4904C-31.9712 47.1265 -28.2115 47.6792 -24.3529 49.1767C-22.9125 49.7362 -21.459 50.3307 -20.054 50.9066C-18.2906 51.6287 -16.4666 52.375 -14.6471 53.0594C-12.1694 53.992 -9.46493 54.6359 -6.37855 55.0287C-2.07243 55.577 2.22644 55.489 5.48994 55.3496C10.0132 55.1578 14.4411 54.9213 18.8852 54.1621C21.8904 53.6491 24.9175 52.7799 27.8446 51.9412C29.0715 51.589 30.3417 51.2246 31.591 50.8925C34.3638 50.1542 37.5781 49.4263 40.6354 50.1325C42.9679 50.6716 44.752 51.6973 46.0899 53.27C49.2074 56.935 50.6372 61.1847 50.4602 66.2617C50.3352 69.8555 49.1753 73.344 48.0557 76.2814C46.1211 81.3607 44.9621 86.0335 44.5116 90.5678C44.0188 95.5267 44.0745 99.5354 44.6842 103.183C45.3322 107.054 47.0398 110.385 49.7575 113.085C51.7842 115.098 54.2522 116.531 57.0345 118.063C59.8423 119.61 62.1482 121.786 63.8853 124.532C66.0701 127.983 67.1818 131.032 67.3867 134.129C67.5604 136.772 67.0174 139.496 65.7258 142.461L65.6122 142.721C64.1684 146.035 62.6751 149.461 61.4091 152.885C59.381 158.371 59.5941 163.654 62.0401 168.587C63.4158 171.362 65.6532 173.729 69.0821 176.036C73.3753 178.925 78.4493 180.905 85.5328 182.457C87.4848 182.885 88.8717 183.684 89.7741 184.897C90.2326 185.515 90.6947 186.129 91.1569 186.743C92.7148 188.815 94.3251 190.958 95.7617 193.161C96.166 193.781 96.6484 194.306 97.1148 194.815C97.3869 195.111 97.6681 195.418 97.9263 195.735C98.5857 196.548 99.2525 197.38 99.896 198.184C101.234 199.856 102.618 201.586 104.03 203.245C105.978 205.533 107.67 207.377 109.353 209.052C113.758 213.432 119.175 216.771 125.454 218.977C128.497 220.046 131.463 221.66 134.271 223.776C135.081 224.387 135.804 225.142 136.505 225.872C136.713 226.09 136.923 226.308 137.134 226.523C137.451 226.845 137.771 227.162 138.091 227.481C139.102 228.489 140.149 229.531 141.054 230.648L141.061 230.656C141.868 231.654 142.584 232.762 143.276 233.835C143.579 234.303 143.892 234.788 144.208 235.257C144.358 235.48 144.511 235.7 144.665 235.92C145.018 236.426 145.383 236.95 145.692 237.489C146.162 238.311 146.622 239.163 147.065 239.984C147.455 240.706 147.857 241.453 148.267 242.18C148.958 243.403 149.551 244.38 150.132 245.255C150.763 246.203 151.417 247.156 152.049 248.078C153.016 249.487 154.015 250.944 154.949 252.407C156.058 254.144 156.955 255.755 157.691 257.333C158.794 259.691 158.679 262.317 157.351 265.137C156.793 266.322 156.161 267.509 155.551 268.657C155.168 269.379 154.77 270.126 154.394 270.867C152.978 273.655 153.168 276.295 154.972 278.941C155.183 279.251 155.405 279.547 155.636 279.833C157.887 282.615 161.045 284.33 164.109 285.995L164.254 286.073C167.91 288.06 171.835 290.115 176.084 291.495C176.729 291.705 177.374 291.916 178.018 292.128C179.863 292.733 181.77 293.358 183.665 293.933C186.364 294.751 189.842 295.962 192.805 298.08C194.44 299.248 196.481 300.87 197.763 303.043C198.776 304.761 199.66 306.607 200.515 308.39C200.787 308.957 201.058 309.523 201.334 310.086C201.666 310.762 201.982 311.465 202.288 312.142C202.806 313.289 203.34 314.474 203.967 315.585C204.833 317.122 205.87 318.883 207.215 320.345C209.416 322.737 211.693 325.211 214.974 326.502C216.77 327.209 218.311 326.925 219.684 325.634C221.037 324.362 222.485 323.137 223.885 321.953L224.134 321.742C226.943 319.365 230.184 318.556 234.041 319.267C236.022 319.631 237.856 320.39 239.63 321.124C240.325 321.413 241.044 321.709 241.764 321.98C245.266 323.298 248.935 323.987 252.063 324.487C253.245 324.676 254.426 324.953 255.569 325.223C256.089 325.346 256.627 325.473 257.159 325.59C257.286 325.618 257.412 325.538 257.44 325.41C257.467 325.283 257.386 325.156 257.259 325.128C256.73 325.011 256.193 324.886 255.675 324.764C254.524 324.492 253.334 324.212 252.135 324.02C249.031 323.523 245.391 322.84 241.929 321.538C241.216 321.269 240.5 320.974 239.809 320.686C238.013 319.943 236.155 319.174 234.124 318.801C230.12 318.064 226.751 318.907 223.827 321.38L223.578 321.591C222.174 322.779 220.72 324.007 219.359 325.288C218.114 326.458 216.776 326.704 215.145 326.062C211.966 324.811 209.727 322.378 207.562 320.026C206.252 318.601 205.232 316.868 204.378 315.354C203.762 314.262 203.232 313.087 202.719 311.949C202.412 311.268 202.094 310.563 201.759 309.88C201.483 309.318 201.212 308.752 200.942 308.187C200.082 306.393 199.193 304.54 198.17 302.803C196.843 300.552 194.752 298.89 193.079 297.694C190.06 295.536 186.534 294.307 183.8 293.479C181.911 292.905 180.006 292.281 178.164 291.677C177.519 291.466 176.874 291.254 176.228 291.045C172.019 289.677 168.116 287.633 164.479 285.656L164.333 285.578C161.004 283.769 157.562 281.9 155.363 278.673C153.665 276.184 153.487 273.701 154.816 271.081C155.191 270.344 155.587 269.6 155.97 268.879C156.583 267.727 157.217 266.535 157.781 265.338C159.172 262.386 159.285 259.625 158.121 257.132C157.375 255.535 156.468 253.906 155.348 252.152C154.409 250.681 153.408 249.221 152.439 247.809C151.807 246.887 151.154 245.936 150.525 244.992C149.951 244.128 149.364 243.16 148.679 241.947C148.271 241.225 147.87 240.48 147.481 239.761C147.037 238.935 146.576 238.082 146.102 237.254C145.783 236.697 145.411 236.164 145.053 235.649C144.9 235.431 144.749 235.214 144.6 234.992C144.286 234.527 143.974 234.044 143.673 233.578C142.974 232.495 142.251 231.376 141.427 230.358L141.421 230.349C140.5 229.212 139.444 228.162 138.423 227.146C138.104 226.829 137.784 226.511 137.469 226.191C137.259 225.978 137.051 225.76 136.844 225.544C136.131 224.8 135.393 224.03 134.553 223.397C131.707 221.251 128.697 219.614 125.608 218.529C119.396 216.347 114.038 213.044 109.684 208.715C108.01 207.05 106.327 205.214 104.387 202.937C102.98 201.284 101.598 199.557 100.263 197.889C99.6189 197.083 98.953 196.251 98.2912 195.437C98.025 195.108 97.7383 194.797 97.4609 194.495C97.0072 194.002 96.5386 193.49 96.1559 192.905C94.7115 190.688 93.0959 188.539 91.5328 186.461C91.0714 185.847 90.61 185.234 90.1523 184.617C89.1767 183.306 87.6998 182.45 85.631 181.997C78.6075 180.458 73.5843 178.5 69.3431 175.645C65.9865 173.386 63.8002 171.078 62.462 168.38C60.0758 163.568 59.8698 158.412 61.8511 153.052C63.1125 149.64 64.6026 146.22 66.0441 142.913L66.1577 142.653C67.48 139.619 68.0358 136.82 67.8565 134.101C67.6475 130.922 66.512 127.803 64.2831 124.282C62.5017 121.468 60.1392 119.237 57.2598 117.651C54.5101 116.136 52.0723 114.721 50.0882 112.752C47.4421 110.124 45.781 106.88 45.1496 103.108C44.5456 99.5035 44.4916 95.5346 44.9809 90.6182C45.4278 86.1265 46.5767 81.4938 48.4963 76.4541C49.6299 73.4795 50.8045 69.9454 50.9319 66.2812C51.1099 61.153 49.599 56.6716 46.4479 52.965C45.0418 51.3118 43.1739 50.2351 40.7386 49.6723C37.5753 48.9421 34.2931 49.6837 31.4666 50.4365C30.2129 50.7706 28.941 51.1348 27.7115 51.4875C24.7964 52.3242 21.7825 53.1889 18.8029 53.698C14.3861 54.4533 9.9745 54.6874 5.46709 54.8801C2.22222 55.0181 -2.04984 55.1072 -6.32101 54.5628C-9.37003 54.1748 -12.0401 53.5396 -14.483 52.62C-16.2967 51.9371 -18.1166 51.1921 -19.8768 50.472C-21.2843 49.895 -22.7395 49.3003 -24.1847 48.7386C-28.1135 47.2125 -31.9447 46.6521 -35.8951 47.0224C-36.5365 47.0823 -37.1903 47.1569 -37.8211 47.228C-39.9851 47.4737 -42.2224 47.7283 -44.3758 47.4576C-47.7615 47.0309 -49.9079 45.1576 -50.5834 42.0392C-51.029 39.9824 -50.8286 37.8132 -50.6347 35.7148L-50.6015 35.3539C-50.5725 35.033 -50.5392 34.7118 -50.5068 34.3912C-50.3061 32.4383 -50.0978 30.4197 -50.7557 28.4798C-51.1818 27.2247 -51.8707 26.1442 -52.5381 25.0996C-52.8183 24.6613 -53.107 24.2086 -53.3709 23.7511C-53.6604 23.2487 -53.9737 22.7488 -54.2762 22.266C-54.9195 21.2401 -55.5845 20.1797 -56.0433 19.0549C-58.3266 13.4443 -58.411 7.39078 -56.2972 1.06237C-55.0156 -2.77331 -53.5648 -6.59333 -51.9835 -10.2916C-49.2594 -16.6656 -47.6224 -21.9738 -46.8333 -26.9986C-46.501 -29.1174 -46.2663 -31.4639 -46.096 -34.382C-45.7109 -40.9802 -45.3626 -47.7271 -45.0603 -54.4352C-44.8791 -58.474 -44.7891 -62.4192 -45.6796 -66.2802C-46.5212 -69.9306 -48.0868 -72.5773 -50.4637 -74.3693C-52.1413 -75.6352 -54.1377 -76.7635 -56.7462 -77.9197C-61.0574 -79.8319 -65.9553 -81.4966 -71.7198 -83.0077C-78.3334 -84.7421 -83.9605 -85.9145 -89.9223 -86C-93.1086 -86.0451 -96.3391 -85.8348 -99.1175 -85.6349C-103.668 -85.3071 -109.022 -84.7493 -114.23 -83.0992C-116.975 -82.2292 -119.736 -81.2228 -122.406 -80.2479C-123.725 -79.766 -125.09 -79.2687 -126.436 -78.7929C-131.093 -77.1493 -136.521 -75.4363 -142.031 -75.9211C-147.175 -76.3741 -150.843 -78.702 -152.932 -82.8407C-154.293 -85.537 -154.756 -88.6898 -154.347 -92.4785C-153.861 -96.9804 -152.118 -101.234 -150.222 -105.557C-148.668 -109.101 -146.999 -113.33 -146.407 -117.828C-146.158 -119.721 -145.879 -121.646 -145.608 -123.509L-145.413 -124.853C-145.272 -125.825 -145.124 -126.812 -144.982 -127.768C-144.7 -129.64 -144.41 -131.575 -144.166 -133.481C-143.831 -136.099 -143.849 -138.799 -144.222 -141.505C-144.635 -144.502 -145.506 -147.379 -146.349 -150.161C-146.647 -151.15 -146.958 -152.172 -147.242 -153.185C-148.315 -157.007 -149.295 -160.936 -150.241 -164.735C-150.625 -166.278 -151.023 -167.873 -151.421 -169.44C-151.594 -170.122 -151.759 -170.82 -151.92 -171.495C-151.995 -171.812 -152.07 -172.128 -152.146 -172.445C-152.176 -172.572 -152.305 -172.651 -152.432 -172.622C-152.559 -172.592 -152.636 -172.463 -152.607 -172.337C-152.531 -172.021 -152.455 -171.704 -152.38 -171.388C-152.22 -170.711 -152.053 -170.012 -151.88 -169.327C-151.481 -167.761 -151.084 -166.167 -150.7 -164.625C-149.752 -160.822 -148.773 -156.889 -147.698 -153.061C-147.413 -152.044 -147.102 -151.019 -146.802 -150.028C-145.964 -147.263 -145.098 -144.403 -144.691 -141.444C-144.323 -138.78 -144.305 -136.122 -144.635 -133.545C-144.879 -131.644 -145.17 -129.711 -145.45 -127.842C-145.594 -126.885 -145.743 -125.897 -145.883 -124.925L-146.078 -123.581C-146.349 -121.717 -146.629 -119.79 -146.877 -117.893C-147.461 -113.454 -149.115 -109.263 -150.656 -105.75C-152.568 -101.392 -154.325 -97.1018 -154.819 -92.5326C-155.238 -88.649 -154.76 -85.4104 -153.356 -82.6287C-152.905 -81.7353 -152.384 -80.9244 -151.793 -80.1944L-151.789 -80.1965Z" fill="white"/>
<path d="M123.205 187.825C123.444 188.119 123.695 188.398 123.961 188.661C125.174 189.866 126.844 190.633 129.213 191.077C132.535 191.699 135.999 191.371 139.349 191.054C139.797 191.012 140.245 190.969 140.691 190.928C147.875 190.283 154.189 190.626 159.991 191.977C164.957 193.134 169.833 194.2 174.899 194.534C176.272 194.624 177.749 194.945 179.549 195.54C181.32 196.126 182.611 197.54 183.383 199.743C184.588 203.173 185.676 206.72 186.728 210.152L186.832 210.495C188.288 215.24 189.914 220.258 192.385 224.862C193.429 226.807 194.52 228.865 195.921 231.536C196.476 232.594 197.036 233.674 197.577 234.717C198.508 236.514 199.472 238.371 200.446 240.183C201.916 242.919 203.274 245.351 204.598 247.617C205.302 248.824 206.054 250.027 206.78 251.191C207.37 252.136 207.98 253.114 208.562 254.086C208.894 254.643 209.24 255.204 209.574 255.746C210.584 257.387 211.63 259.084 212.437 260.858C213.731 263.701 214.757 266.68 215.782 269.738C216.673 272.396 217.681 275.408 219.479 277.906C221.178 280.265 223.66 282.169 227.289 283.896C228.702 284.568 230.151 285.229 231.552 285.867C233.582 286.792 235.68 287.748 237.702 288.755C240.105 289.953 242.22 291.462 243.985 293.24C245.741 295.008 247.222 296.488 248.743 297.966C252.924 302.029 258.074 305.016 264.49 307.099C266.679 307.81 268.77 308.856 270.793 309.869C271.647 310.296 272.53 310.738 273.41 311.15C273.542 311.212 273.659 311.339 273.782 311.475C273.848 311.547 273.915 311.621 273.99 311.69C274.085 311.779 274.236 311.775 274.324 311.679C274.413 311.584 274.407 311.434 274.312 311.344C274.251 311.288 274.194 311.225 274.133 311.157C273.983 310.993 273.829 310.823 273.61 310.721C272.736 310.312 271.856 309.871 271.005 309.446C268.967 308.425 266.859 307.369 264.636 306.649C258.291 304.589 253.201 301.637 249.074 297.627C247.555 296.151 246.075 294.672 244.321 292.907C242.52 291.093 240.364 289.554 237.914 288.332C235.885 287.321 233.783 286.363 231.75 285.437C230.351 284.8 228.903 284.14 227.494 283.47C223.94 281.779 221.516 279.923 219.866 277.631C218.11 275.192 217.114 272.216 216.234 269.591C215.205 266.52 214.174 263.527 212.871 260.664C212.051 258.863 210.998 257.153 209.979 255.5C209.646 254.959 209.301 254.399 208.97 253.846C208.387 252.869 207.775 251.89 207.184 250.943C206.459 249.782 205.71 248.582 205.009 247.382C203.689 245.121 202.332 242.694 200.866 239.962C199.893 238.154 198.931 236.296 198.001 234.502C197.459 233.458 196.899 232.379 196.344 231.319C194.942 228.647 193.85 226.587 192.806 224.641C190.356 220.074 188.736 215.081 187.289 210.359L187.184 210.015C186.131 206.579 185.042 203.026 183.834 199.588C183.01 197.24 181.619 195.727 179.701 195.092C177.862 194.483 176.349 194.156 174.935 194.063C169.905 193.732 165.049 192.67 160.102 191.518C154.251 190.155 147.888 189.808 140.653 190.459C140.206 190.499 139.757 190.542 139.308 190.585C135.99 190.899 132.561 191.224 129.305 190.614C127.033 190.189 125.443 189.462 124.3 188.328C123.027 187.063 122.084 185.43 121.416 183.335C119.733 178.055 118.521 172.407 117.713 166.07C117.157 161.719 117.086 157.053 117.498 152.201C117.957 146.814 119.933 141.497 123.718 135.471C126.295 131.366 128.288 127.642 129.811 124.08C131.448 120.253 133.075 116.12 133.893 111.831C134.657 107.829 135.513 103.105 136.079 98.4146C136.445 95.3778 137.035 92.9238 137.935 90.6917C138.518 89.2453 139.665 88.1145 141.252 87.4222C143.258 86.5468 145.881 86.6189 148.268 87.6159C150.471 88.5358 152.154 90.1422 152.886 92.0236C154 94.8861 154.355 98.0794 153.971 101.788C153.422 107.101 151.287 111.971 149.271 116.035C148.543 117.504 147.778 118.989 147.039 120.425C146.31 121.841 145.555 123.306 144.835 124.755C142.474 129.51 141.217 133.847 140.995 138.012C140.729 142.972 141.436 146.754 143.217 149.916C144.439 152.085 145.829 153.755 147.463 155.026C150.226 157.173 153.655 158.779 158.252 160.078C162.291 161.221 166.424 162.313 170.422 163.371C174.302 164.397 178.315 165.459 182.236 166.563C187.302 167.991 192.575 168.997 197.98 169.987C202.96 170.899 207.577 170.859 212.092 169.864C214.667 169.297 217.288 168.745 219.825 168.212C221.768 167.803 223.778 167.38 225.753 166.953C229.061 166.238 231.86 166.168 234.308 166.741C237.711 167.537 239.12 169.458 238.74 172.787C238.524 174.678 237.604 176.7 236.006 178.795C234.663 180.556 233.247 182.314 231.877 184.015C230.575 185.631 229.229 187.303 227.945 188.976C226.511 190.847 225.252 192.546 224.371 194.401C222.152 199.071 221.537 204.249 222.541 209.792C223.414 214.61 224.401 219.48 225.355 224.188C225.655 225.667 225.954 227.146 226.251 228.627C226.391 229.326 226.529 230.027 226.666 230.728C227.15 233.195 227.65 235.744 228.273 238.211C229.381 242.598 230.741 247.237 233.172 251.456C233.653 252.291 234.116 253.159 234.563 253.998C235.161 255.12 235.781 256.28 236.454 257.384C237.48 259.063 238.648 260.685 239.777 262.252L240.451 263.188C241.56 264.734 242.707 266.332 243.954 267.809C245.374 269.49 246.881 271.143 248.34 272.741C248.929 273.386 249.536 274.052 250.13 274.711C251.647 276.395 253.576 277.851 256.203 279.294C260.869 281.859 265.927 283.673 270.26 285.108C273.679 286.241 276.834 286.911 279.907 287.155C284.608 287.529 289.684 287.777 294.944 287.067C299.462 286.457 303.161 284.936 306.252 282.416C306.853 281.927 307.458 281.422 308.044 280.935C310.75 278.681 313.547 276.35 316.754 274.732C318.35 273.926 320.221 273.061 322.231 273.002C322.361 272.998 322.463 272.888 322.459 272.758C322.455 272.627 322.345 272.525 322.214 272.528C320.108 272.591 318.181 273.482 316.538 274.31C313.284 275.954 310.465 278.301 307.74 280.572C307.155 281.059 306.551 281.563 305.952 282.051C302.93 284.514 299.308 286.002 294.878 286.601C289.661 287.305 284.616 287.058 279.942 286.686C276.908 286.444 273.788 285.783 270.405 284.661C266.093 283.232 261.06 281.428 256.427 278.882C253.85 277.466 251.96 276.041 250.479 274.397C249.885 273.738 249.276 273.07 248.687 272.425C247.232 270.83 245.727 269.182 244.313 267.507C243.078 266.044 241.937 264.454 240.833 262.916L240.159 261.979C239.034 260.418 237.872 258.805 236.856 257.142C236.19 256.05 235.574 254.896 234.978 253.779C234.529 252.936 234.065 252.066 233.58 251.224C231.178 247.056 229.829 242.453 228.73 238.1C228.11 235.646 227.612 233.103 227.129 230.643C226.991 229.942 226.854 229.24 226.712 228.54C226.416 227.059 226.117 225.58 225.816 224.1C224.862 219.393 223.876 214.527 223.004 209.714C222.004 204.194 222.59 199.254 224.796 194.611C225.658 192.797 226.901 191.119 228.318 189.27C229.598 187.601 230.943 185.932 232.244 184.317C233.616 182.614 235.034 180.853 236.382 179.087C238.031 176.923 238.982 174.824 239.208 172.847C239.615 169.281 238.047 167.134 234.412 166.285C231.894 165.697 229.027 165.765 225.649 166.496C223.675 166.923 221.666 167.346 219.723 167.754C217.186 168.288 214.564 168.84 211.986 169.408C207.533 170.39 202.979 170.428 198.061 169.528C192.667 168.541 187.407 167.537 182.361 166.114C178.436 165.009 174.421 163.947 170.539 162.92C166.545 161.864 162.414 160.771 158.377 159.63C153.84 158.347 150.463 156.768 147.749 154.658C146.165 153.428 144.817 151.803 143.626 149.69C141.866 146.569 141.199 142.977 141.463 138.045C141.683 133.944 142.923 129.668 145.255 124.972C145.974 123.526 146.727 122.062 147.456 120.647C148.196 119.209 148.963 117.723 149.692 116.251C151.727 112.149 153.882 107.23 154.438 101.843C154.83 98.058 154.465 94.7921 153.323 91.8576C152.532 89.8268 150.8 88.1672 148.446 87.1838C145.942 86.1382 143.18 86.0671 141.059 86.9932C139.356 87.7362 138.123 88.9554 137.493 90.5188C136.578 92.7906 135.978 95.283 135.607 98.3622C135.043 103.038 134.188 107.752 133.426 111.747C132.616 115.991 131 120.096 129.373 123.899C127.86 127.437 125.878 131.142 123.314 135.224C119.488 141.317 117.49 146.701 117.024 152.165C116.609 157.051 116.682 161.75 117.24 166.133C118.052 172.5 119.269 178.175 120.961 183.483C121.515 185.219 122.255 186.652 123.209 187.831L123.205 187.825Z" fill="white"/>
<path d="M-142.157 -89.018C-141.84 -88.6263 -141.471 -88.2693 -141.048 -87.942C-138.82 -86.2189 -136.154 -86.149 -133.604 -86.3314C-130.642 -86.5427 -127.765 -87.5391 -124.984 -88.5021L-124.33 -88.728C-122.932 -89.2092 -121.516 -89.7279 -120.148 -90.2282C-117.479 -91.204 -114.72 -92.2132 -111.969 -93C-107.127 -94.3856 -102.163 -95.5745 -97.3624 -96.7246C-96.4609 -96.94 -95.5602 -97.1563 -94.6585 -97.3734C-89.1061 -98.7121 -83.9573 -98.9647 -78.9196 -98.1451C-70.2739 -96.7387 -63.4928 -94.9232 -57.5809 -92.4318C-56.6724 -92.0489 -55.7417 -91.6704 -54.8415 -91.3053C-50.578 -89.5741 -46.1683 -87.7843 -42.5654 -84.8338C-40.1443 -82.8519 -38.371 -80.3579 -37.1455 -77.2133C-35.3472 -72.5984 -34.9354 -67.5768 -34.7696 -63.2743C-34.5652 -57.9645 -34.4138 -52.5568 -34.2676 -47.3264C-34.2059 -45.1299 -34.145 -42.9326 -34.0789 -40.7365L-34.0647 -40.2569C-33.9687 -36.9458 -33.8685 -33.5205 -32.8206 -30.3908C-32.0021 -27.9464 -30.6836 -26.6737 -28.6701 -26.3842C-26.9285 -26.1341 -25.2527 -26.6039 -23.5478 -27.1522C-20.2993 -28.1945 -17.1812 -29.7231 -14.283 -31.696C-12.1515 -33.1462 -11.0037 -35.3652 -10.8696 -38.2905C-10.8328 -39.1088 -10.8005 -39.9403 -10.7693 -40.7449C-10.6842 -42.9627 -10.5955 -45.255 -10.3853 -47.5115C-9.80161 -53.761 -7.41847 -59.7827 -5.23051 -64.9359C-3.72919 -68.4719 -2.42291 -71.6762 -1.65182 -75.0743C-0.891985 -78.4207 -0.862144 -81.9725 -1.56137 -85.9333C-2.09479 -88.9531 -2.74293 -91.9213 -3.36236 -94.7037C-4.13503 -98.175 -3.88413 -101.814 -2.59766 -105.826C-1.6482 -108.786 -2.20545 -111.657 -4.20862 -114.132C-4.22353 -114.151 -4.23769 -114.168 -4.25261 -114.187C-5.45951 -115.66 -6.9248 -116.718 -8.60444 -117.33C-11.5017 -118.387 -14.0662 -117.955 -16.4435 -116.008C-17.327 -115.284 -18.2228 -114.653 -19.1082 -114.13C-21.7797 -112.551 -24.6927 -111.913 -27.7682 -112.232C-29.7741 -112.441 -31.7851 -112.787 -33.7289 -113.124C-34.5835 -113.271 -35.467 -113.424 -36.3377 -113.563C-37.0685 -113.679 -37.8074 -113.815 -38.5231 -113.947C-40.1387 -114.244 -41.808 -114.551 -43.4885 -114.652C-46.0636 -114.808 -48.9001 -114.42 -52.4148 -113.433L-52.7951 -113.326C-54.9424 -112.722 -57.1626 -112.097 -59.4126 -111.882C-63.5496 -111.489 -66.9463 -112.759 -69.7955 -115.766C-71.3394 -117.396 -72.1775 -119.497 -72.7936 -121.338C-73.6532 -123.905 -74.7331 -126.563 -76.8041 -128.619C-78.6257 -130.428 -80.7422 -131.225 -83.2752 -131.056C-85.8835 -130.883 -88.0334 -129.499 -90.1138 -128.16C-90.2598 -128.066 -90.4068 -127.972 -90.5528 -127.878C-91.8701 -127.035 -93.4151 -126.097 -95.086 -125.65C-98.126 -124.834 -101.328 -124.816 -105.165 -125.592C-108.172 -126.2 -110.402 -127.375 -111.984 -129.185C-113.302 -130.692 -113.972 -132.58 -113.876 -134.504C-113.689 -138.222 -113.416 -141.887 -113.061 -145.395C-112.604 -149.915 -112.925 -154.555 -114.013 -159.187C-115.278 -164.575 -115.568 -170.031 -114.899 -175.866C-114.621 -178.294 -114.396 -180.863 -114.172 -184.194C-113.902 -188.211 -114.096 -192.535 -114.765 -197.411C-114.914 -198.489 -115.152 -199.562 -115.382 -200.6C-115.487 -201.073 -115.596 -201.562 -115.695 -202.045C-115.7 -202.068 -115.723 -202.084 -115.746 -202.079C-115.77 -202.075 -115.786 -202.05 -115.781 -202.026C-115.683 -201.544 -115.573 -201.054 -115.468 -200.581C-115.238 -199.544 -115 -198.473 -114.853 -197.4C-114.185 -192.529 -113.991 -188.212 -114.262 -184.201C-114.486 -180.871 -114.71 -178.304 -114.988 -175.876C-115.658 -170.03 -115.367 -164.564 -114.101 -159.167C-113.015 -154.544 -112.695 -149.914 -113.15 -145.404C-113.504 -141.895 -113.779 -138.229 -113.965 -134.508C-114.062 -132.561 -113.382 -130.653 -112.05 -129.127C-110.456 -127.303 -108.209 -126.118 -105.181 -125.505C-101.332 -124.726 -98.1159 -124.745 -95.0621 -125.564C-93.379 -126.015 -91.8269 -126.957 -90.5032 -127.804C-90.3572 -127.898 -90.2103 -127.992 -90.0643 -128.086C-87.9938 -129.418 -85.853 -130.796 -83.2675 -130.968C-80.7617 -131.135 -78.6678 -130.346 -76.8654 -128.556C-74.8079 -126.515 -73.7321 -123.867 -72.8763 -121.311C-72.2571 -119.46 -71.4135 -117.347 -69.8589 -115.706C-66.9893 -112.677 -63.57 -111.398 -59.4033 -111.794C-57.1448 -112.009 -54.9204 -112.635 -52.7696 -113.24L-52.3892 -113.347C-48.8841 -114.331 -46.0577 -114.718 -43.4926 -114.563C-41.8181 -114.462 -40.1512 -114.156 -38.5389 -113.859C-37.8231 -113.727 -37.0826 -113.592 -36.3518 -113.475C-35.4812 -113.336 -34.5977 -113.183 -33.7438 -113.037C-31.7974 -112.701 -29.7857 -112.354 -27.7772 -112.145C-24.6827 -111.823 -21.7506 -112.466 -19.0629 -114.055C-18.1739 -114.581 -17.2736 -115.215 -16.3874 -115.941C-14.0367 -117.866 -11.5005 -118.294 -8.63561 -117.249C-6.96969 -116.642 -5.51945 -115.593 -4.32224 -114.132C-4.30807 -114.115 -4.29317 -114.096 -4.27825 -114.078C-2.29448 -111.626 -1.74259 -108.784 -2.68229 -105.854C-3.97455 -101.826 -4.22534 -98.1721 -3.44923 -94.6852C-2.83055 -91.9037 -2.18151 -88.9363 -1.64958 -85.9184C-0.952478 -81.9696 -0.982022 -78.4287 -1.73973 -75.0947C-2.50996 -71.7049 -3.81424 -68.5038 -5.31429 -64.9718C-7.50461 -59.8122 -9.89027 -53.7823 -10.476 -47.5204C-10.6867 -45.2606 -10.7755 -42.9666 -10.8598 -40.7479C-10.8901 -39.944 -10.9224 -39.1126 -10.96 -38.2952C-11.0928 -35.3983 -12.228 -33.2032 -14.3351 -31.7698C-17.2269 -29.802 -20.337 -28.2769 -23.5769 -27.2369C-25.2721 -26.6935 -26.9367 -26.225 -28.6601 -26.4732C-30.6371 -26.757 -31.9331 -28.0113 -32.7394 -30.4199C-33.7834 -33.5375 -33.8826 -36.9559 -33.9794 -40.2604L-33.9936 -40.7399C-34.0597 -42.9361 -34.1205 -45.1334 -34.1823 -47.3299C-34.3285 -52.5603 -34.4799 -57.9679 -34.685 -63.2787C-34.8509 -67.5888 -35.2635 -72.6189 -37.0672 -77.2462C-38.2987 -80.4057 -40.081 -82.9107 -42.5137 -84.9032C-46.1283 -87.8625 -50.5427 -89.6544 -54.8127 -91.388C-55.7129 -91.7531 -56.6429 -92.1307 -57.5514 -92.5136C-63.4697 -95.0074 -70.2566 -96.8244 -78.9097 -98.2325C-83.9598 -99.0541 -89.1195 -98.8019 -94.6841 -97.4595C-95.5848 -97.2432 -96.4865 -97.026 -97.3879 -96.8106C-102.19 -95.6598 -107.155 -94.4711 -111.998 -93.0848C-114.753 -92.2966 -117.514 -91.286 -120.183 -90.3094C-121.552 -89.8091 -122.967 -89.2912 -124.364 -88.81L-125.019 -88.584C-127.795 -87.6231 -130.666 -86.6286 -133.617 -86.4177C-136.148 -86.2376 -138.795 -86.3046 -141 -88.01C-142.673 -89.3039 -143.492 -91.0827 -143.579 -93.6077C-143.685 -96.6598 -142.507 -99.521 -141.339 -101.916C-140.748 -103.13 -140.119 -104.352 -139.511 -105.535C-137.911 -108.646 -136.258 -111.862 -135.132 -115.216C-134.006 -118.57 -133.251 -122.168 -132.824 -126.217C-132.414 -130.116 -132.259 -133.278 -132.337 -136.169C-132.443 -140.152 -133.026 -144.296 -134.171 -149.211C-134.888 -152.291 -135.493 -155.463 -136.08 -158.531L-136.112 -158.701C-136.59 -161.204 -137.053 -163.753 -137.499 -166.22C-137.774 -167.741 -138.06 -169.315 -138.346 -170.861C-138.957 -174.163 -139.984 -177.45 -141.486 -180.909C-141.504 -180.95 -141.484 -181.021 -141.463 -181.089C-141.453 -181.127 -141.442 -181.164 -141.436 -181.2C-141.432 -181.225 -141.449 -181.247 -141.473 -181.251C-141.497 -181.255 -141.519 -181.239 -141.524 -181.214C-141.529 -181.182 -141.539 -181.147 -141.548 -181.113C-141.572 -181.03 -141.596 -180.944 -141.567 -180.873C-140.067 -177.42 -139.042 -174.14 -138.433 -170.844C-138.147 -169.299 -137.862 -167.726 -137.586 -166.204C-137.139 -163.738 -136.677 -161.187 -136.199 -158.685L-136.166 -158.515C-135.58 -155.446 -134.974 -152.273 -134.257 -149.191C-133.115 -144.283 -132.532 -140.146 -132.425 -136.168C-132.349 -133.28 -132.503 -130.122 -132.913 -126.227C-133.338 -122.185 -134.091 -118.592 -135.216 -115.245C-136.339 -111.899 -137.992 -108.685 -139.591 -105.577C-140.199 -104.394 -140.828 -103.171 -141.419 -101.957C-142.59 -99.551 -143.775 -96.677 -143.668 -93.6063C-143.602 -91.6895 -143.117 -90.1966 -142.162 -89.0169L-142.157 -89.018Z" fill="white"/>
<path d="M-140.809 -89.9591C-140.762 -89.9002 -140.714 -89.8429 -140.663 -89.7861C-139.545 -88.513 -137.873 -87.7661 -135.69 -87.5663C-131.903 -87.2202 -128.192 -88.4217 -125.011 -89.5756C-117.552 -92.2801 -109.949 -94.709 -102.413 -96.7957C-100.537 -97.3147 -98.6402 -97.8946 -96.8051 -98.4567C-95.5279 -98.8481 -94.2063 -99.2524 -92.9042 -99.6318C-89.2068 -100.711 -85.2661 -101.735 -81.317 -101.403C-78.5448 -101.169 -76.0994 -100.842 -73.8398 -100.402C-71.2346 -99.8963 -68.4738 -99.3255 -65.88 -98.4166C-61.5498 -96.8996 -57.4066 -94.8758 -53.4005 -92.9181C-51.6862 -92.0801 -49.9133 -91.2148 -48.1503 -90.3993C-44.9679 -88.9281 -42.3381 -87.1729 -40.1094 -85.0306C-38.5878 -83.5669 -37.3286 -81.6164 -36.2597 -79.0634C-35.0161 -76.0936 -34.2714 -72.9855 -34.046 -69.8263C-33.6441 -64.1897 -33.3406 -58.44 -33.046 -52.8797C-32.8789 -49.7192 -32.7061 -46.4503 -32.518 -43.2395C-32.32 -39.8736 -32.1154 -36.3926 -30.9446 -33.1748C-30.7206 -32.5599 -30.4227 -32.0246 -30.0587 -31.5748C-28.8357 -30.0633 -26.8765 -29.5179 -24.5354 -30.1081C-22.094 -30.7246 -20.1028 -32.1528 -18.3151 -33.6054C-16.5687 -35.0245 -15.389 -36.7965 -14.8079 -38.8727C-13.8385 -42.3413 -13.0995 -45.8035 -12.5033 -48.7322C-11.4479 -53.9236 -9.39841 -58.9831 -7.41581 -63.8755L-7.3345 -64.0755C-6.10224 -67.1177 -4.70522 -70.5648 -3.91024 -74.0555C-2.7831 -79.006 -3.22191 -84.1324 -5.25247 -89.7292C-6.52476 -93.234 -7.96797 -96.3153 -9.66579 -99.1478C-11.459 -102.14 -13.8105 -104.005 -16.8551 -104.85C-17.8487 -105.126 -18.8693 -105.377 -19.8562 -105.62C-20.5371 -105.787 -21.2417 -105.962 -21.9307 -106.141C-25.0319 -106.95 -28.1841 -107.779 -31.2316 -108.58C-32.474 -108.906 -33.7163 -109.234 -34.9587 -109.56C-38.6196 -110.522 -42.9805 -111.403 -47.5619 -110.65C-49.8386 -110.275 -52.1365 -109.615 -54.3582 -108.975C-55.2835 -108.708 -56.2409 -108.432 -57.1829 -108.182C-58.8614 -107.735 -60.8173 -107.256 -62.783 -107.227C-66.8129 -107.169 -70.0202 -108.807 -72.3627 -110.241C-75.4434 -112.125 -77.8826 -114.501 -80.7501 -117.412C-82.5108 -119.199 -84.341 -120.106 -86.5093 -120.265L-86.8373 -120.289C-90.2665 -120.541 -93.8117 -120.8 -97.2459 -121.262C-101.179 -121.791 -105.776 -122.581 -110.052 -124.425C-115.033 -126.573 -117.269 -130.224 -116.696 -135.277C-116.505 -136.974 -116.293 -138.699 -116.087 -140.368C-115.855 -142.263 -115.615 -144.221 -115.402 -146.149C-115.009 -149.696 -115.292 -153.469 -116.289 -158.021C-116.355 -158.321 -116.42 -158.62 -116.488 -158.919C-117.114 -161.736 -117.761 -164.65 -117.658 -167.648C-117.58 -169.91 -117.34 -172.222 -117.109 -174.459C-116.966 -175.846 -116.818 -177.28 -116.709 -178.689C-116.445 -182.116 -116.284 -184.97 -116.206 -187.67C-116.083 -191.868 -116.542 -196.193 -117.57 -200.53C-117.576 -200.555 -117.6 -200.569 -117.624 -200.563C-117.648 -200.557 -117.662 -200.534 -117.657 -200.51C-116.63 -196.182 -116.172 -191.864 -116.295 -187.674C-116.374 -184.975 -116.534 -182.123 -116.798 -178.698C-116.907 -177.29 -117.055 -175.857 -117.198 -174.471C-117.429 -172.233 -117.669 -169.919 -117.746 -167.654C-117.85 -164.644 -117.201 -161.726 -116.574 -158.902C-116.509 -158.603 -116.441 -158.304 -116.376 -158.005C-115.38 -153.462 -115.099 -149.698 -115.489 -146.161C-115.702 -144.235 -115.942 -142.276 -116.174 -140.381C-116.378 -138.712 -116.591 -136.986 -116.783 -135.289C-117.36 -130.193 -115.107 -126.512 -110.086 -124.346C-105.799 -122.498 -101.194 -121.706 -97.2556 -121.177C-93.8189 -120.715 -90.2712 -120.454 -86.8421 -120.203L-86.514 -120.179C-84.369 -120.022 -82.5557 -119.124 -80.811 -117.352C-77.9389 -114.437 -75.4959 -112.057 -72.4065 -110.167C-70.0529 -108.727 -66.8321 -107.082 -62.7785 -107.141C-60.8019 -107.17 -58.8406 -107.651 -57.1563 -108.099C-56.2133 -108.349 -55.2559 -108.625 -54.3297 -108.893C-52.1098 -109.531 -49.8153 -110.192 -47.5437 -110.566C-42.9785 -111.316 -38.6293 -110.437 -34.9773 -109.478C-33.7349 -109.152 -32.4925 -108.826 -31.2502 -108.498C-28.2027 -107.697 -25.0505 -106.868 -21.9493 -106.059C-21.2596 -105.878 -20.555 -105.704 -19.8731 -105.538C-18.8862 -105.295 -17.8666 -105.043 -16.8745 -104.769C-13.8536 -103.931 -11.5191 -102.079 -9.7381 -99.1076C-8.04327 -96.2788 -6.60194 -93.2035 -5.33245 -89.7041C-3.30774 -84.1239 -2.86981 -79.0137 -3.99264 -74.0803C-4.78602 -70.597 -6.18104 -67.1531 -7.41129 -64.114L-7.49255 -63.914C-9.47641 -59.0175 -11.527 -53.9557 -12.5842 -48.7552C-13.1795 -45.8272 -13.9191 -42.3676 -14.8874 -38.9014C-15.4625 -36.8423 -16.6322 -35.0861 -18.3655 -33.679C-20.1459 -32.2324 -22.1272 -30.8107 -24.5529 -30.1992C-27.5851 -29.4341 -29.8826 -30.5308 -30.856 -33.2099C-32.0213 -36.4154 -32.2266 -39.8897 -32.4237 -43.2487C-32.6117 -46.4595 -32.7854 -49.7277 -32.9526 -52.8882C-33.2463 -58.4492 -33.5507 -64.1982 -33.9524 -69.8364C-34.1784 -73.0058 -34.9247 -76.1234 -36.1724 -79.102C-37.2453 -81.6655 -38.5117 -83.627 -40.0427 -85.0984C-42.2783 -87.2473 -44.9165 -89.0093 -48.1079 -90.4839C-49.8718 -91.2987 -51.6438 -92.1648 -53.3574 -93.0019C-57.3659 -94.9607 -61.5105 -96.9863 -65.8465 -98.5048C-68.4467 -99.416 -71.2109 -99.9872 -73.8194 -100.494C-76.0823 -100.934 -78.531 -101.261 -81.3066 -101.495C-85.2706 -101.829 -89.2201 -100.803 -92.9262 -99.7209C-94.2292 -99.3407 -95.5507 -98.9364 -96.8287 -98.5459C-98.6628 -97.9846 -100.559 -97.4047 -102.434 -96.8855C-109.972 -94.7989 -117.577 -92.3695 -125.038 -89.6636C-128.21 -88.5137 -131.911 -87.3145 -135.679 -87.6593C-140.06 -88.0599 -142.33 -90.6611 -142.07 -94.9818C-141.855 -98.555 -140.249 -101.777 -138.329 -105.318C-135.931 -109.742 -133.521 -114.533 -132.143 -119.591C-129.983 -127.512 -129.84 -135.954 -131.705 -145.401L-131.815 -145.958C-132.973 -151.819 -134.17 -157.88 -135.136 -163.897C-135.896 -168.63 -136.704 -173.241 -138.205 -177.62C-138.586 -178.732 -138.993 -179.854 -139.385 -180.938C-139.567 -181.44 -139.749 -181.943 -139.929 -182.445C-139.937 -182.469 -139.962 -182.481 -139.986 -182.473C-140.009 -182.464 -140.021 -182.439 -140.013 -182.416C-139.832 -181.913 -139.651 -181.411 -139.469 -180.908C-139.076 -179.824 -138.67 -178.702 -138.29 -177.592C-136.791 -173.219 -135.986 -168.612 -135.225 -163.883C-134.258 -157.865 -133.061 -151.803 -131.903 -145.941L-131.793 -145.385C-129.931 -135.952 -130.072 -127.522 -132.228 -119.615C-133.606 -114.566 -136.012 -109.78 -138.408 -105.361C-140.333 -101.811 -141.944 -98.5796 -142.16 -94.9881C-142.285 -92.9168 -141.83 -91.2276 -140.807 -89.964L-140.809 -89.9591Z" fill="white"/>
<path d="M224.479 273.166C226.288 275.402 228.326 277.145 230.657 278.456C233.796 280.223 237.108 281.616 240.22 282.857C243.784 284.279 246.53 286.395 248.618 289.322C250.387 291.805 252.591 294.897 255.481 297.194C257.52 298.815 259.926 300.121 263.052 301.306C264.082 301.696 265.147 302.062 266.177 302.417C268.147 303.094 270.184 303.795 272.062 304.694C273.522 305.393 274.838 306.4 276.108 307.373C276.676 307.807 277.263 308.257 277.856 308.672C277.876 308.686 277.903 308.681 277.917 308.662C277.931 308.641 277.927 308.614 277.907 308.6C277.315 308.185 276.729 307.736 276.163 307.303C274.887 306.328 273.569 305.318 272.099 304.615C270.216 303.714 268.177 303.012 266.204 302.334C265.175 301.98 264.111 301.614 263.081 301.224C259.965 300.042 257.566 298.74 255.535 297.126C252.654 294.836 250.456 291.751 248.688 289.272C246.591 286.33 243.832 284.205 240.252 282.776C237.143 281.535 233.835 280.145 230.7 278.381C227.678 276.68 225.152 274.253 222.976 270.959C221.938 269.387 221.099 267.639 220.287 265.948C219.849 265.034 219.395 264.089 218.916 263.183C218.012 261.474 217.141 259.96 216.257 258.556C215.127 256.762 213.926 254.973 212.764 253.242C212.541 252.91 212.318 252.578 212.096 252.246C211.828 251.845 211.539 251.449 211.261 251.065C210.854 250.506 210.433 249.928 210.07 249.328C208.756 247.164 207.356 244.824 206.008 242.387C205.118 240.778 204.245 239.122 203.399 237.522C202.686 236.171 201.95 234.775 201.206 233.412C200.562 232.233 199.885 231.047 199.231 229.9C198.469 228.566 197.681 227.185 196.941 225.808C193.329 219.079 191.208 212.572 190.457 205.912C190.133 203.03 189.895 199.952 190.84 196.785C191.575 194.328 192.791 192.391 194.56 190.868C194.998 190.49 195.448 190.109 195.884 189.741C197.025 188.777 198.203 187.779 199.297 186.732C201.071 185.033 202.391 183.257 203.333 181.301C204.291 179.31 205.573 177.095 207.816 175.767C209.874 174.549 211.926 173.537 213.915 172.759C218.145 171.105 222.719 169.531 227.498 169.212C229.597 169.072 231.624 169.043 233.342 170.221C234.506 171.018 235.021 172.119 234.917 173.587C234.783 175.49 233.899 177.169 232.613 179.105C231.415 180.907 229.964 182.541 228.561 184.122C228.136 184.6 227.698 185.093 227.273 185.585C227.044 185.849 226.814 186.113 226.585 186.377C223.871 189.495 221.064 192.72 219.829 196.821C218.973 199.664 218.693 202.674 218.949 206.291C219.182 209.598 219.992 212.782 220.776 215.862C221.115 217.191 221.464 218.565 221.762 219.929C222.076 221.361 222.412 222.811 222.738 224.213C223.104 225.79 223.483 227.421 223.83 229.033C224.111 230.342 224.385 231.678 224.649 232.97C225.784 238.511 226.958 244.241 229.095 249.535C229.912 251.556 230.803 253.696 231.925 255.687C233.044 257.673 234.322 259.607 235.556 261.478C235.89 261.985 236.225 262.49 236.556 262.997C237.075 263.793 237.624 264.585 238.155 265.353C238.73 266.184 239.325 267.043 239.883 267.906C240.502 268.864 241.112 269.851 241.701 270.806C242.491 272.087 243.308 273.41 244.159 274.68L244.268 274.842C245.359 276.47 246.486 278.152 247.849 279.578C249.411 281.212 251.56 282.427 254.611 283.405C257.408 284.301 260.889 285.416 264.175 286.588C269.631 288.535 275.567 290.31 282.005 290.123C282.443 290.11 282.88 290.098 283.317 290.086C288.233 289.95 293.316 289.81 298.344 288.811C300.44 288.394 302.584 287.587 304.896 286.343C306.391 285.539 307.679 284.457 308.925 283.411C309.531 282.902 310.158 282.377 310.799 281.89C311.315 281.499 311.778 281.022 312.227 280.561C312.614 280.162 313.014 279.751 313.446 279.396C313.983 278.956 314.592 278.584 315.183 278.225C315.446 278.066 315.716 277.9 315.978 277.731C315.999 277.718 316.004 277.691 315.991 277.671C315.978 277.651 315.95 277.644 315.93 277.657C315.669 277.825 315.399 277.991 315.137 278.15C314.544 278.51 313.931 278.883 313.39 279.327C312.954 279.684 312.552 280.098 312.164 280.497C311.717 280.956 311.257 281.431 310.746 281.818C310.104 282.306 309.476 282.832 308.87 283.341C307.628 284.384 306.342 285.462 304.855 286.263C302.55 287.503 300.416 288.307 298.329 288.722C293.309 289.72 288.229 289.861 283.317 289.996C282.88 290.008 282.442 290.021 282.004 290.034C275.581 290.22 269.655 288.447 264.207 286.504C260.919 285.332 257.438 284.217 254.64 283.321C251.604 282.348 249.467 281.14 247.915 279.517C246.557 278.097 245.432 276.418 244.344 274.793L244.235 274.631C243.385 273.362 242.569 272.04 241.779 270.76C241.19 269.804 240.581 268.816 239.961 267.859C239.402 266.994 238.807 266.134 238.231 265.304C237.7 264.537 237.151 263.744 236.632 262.951C236.3 262.443 235.967 261.937 235.632 261.431C234.398 259.562 233.121 257.629 232.003 255.645C230.884 253.659 229.994 251.522 229.178 249.503C227.042 244.218 225.87 238.491 224.737 232.954C224.472 231.661 224.198 230.326 223.917 229.015C223.571 227.403 223.192 225.771 222.825 224.193C222.5 222.792 222.164 221.342 221.85 219.91C221.552 218.544 221.202 217.169 220.863 215.839C220.08 212.763 219.271 209.583 219.038 206.284C218.784 202.679 219.062 199.679 219.914 196.847C221.144 192.764 223.944 189.546 226.651 186.434C226.882 186.17 227.111 185.907 227.34 185.642C227.765 185.151 228.204 184.657 228.627 184.18C230.033 182.597 231.486 180.959 232.687 179.153C233.981 177.206 234.87 175.516 235.007 173.593C235.113 172.09 234.585 170.963 233.393 170.146C231.651 168.954 229.608 168.981 227.492 169.122C222.7 169.442 218.119 171.019 213.882 172.675C211.888 173.454 209.833 174.469 207.771 175.689C205.508 177.029 204.217 179.257 203.253 181.261C202.317 183.206 201.003 184.975 199.237 186.667C198.145 187.712 196.967 188.709 195.828 189.671C195.392 190.04 194.942 190.42 194.504 190.798C192.722 192.333 191.496 194.283 190.757 196.758C189.807 199.942 190.046 203.03 190.372 205.92C191.123 212.592 193.247 219.11 196.864 225.849C197.605 227.228 198.392 228.608 199.155 229.943C199.809 231.09 200.485 232.275 201.129 233.454C201.872 234.815 202.609 236.212 203.321 237.562C204.167 239.163 205.04 240.819 205.931 242.428C207.279 244.867 208.681 247.206 209.995 249.372C210.361 249.975 210.783 250.555 211.191 251.116C211.469 251.498 211.757 251.894 212.025 252.293C212.248 252.625 212.47 252.957 212.693 253.289C213.854 255.019 215.055 256.808 216.184 258.601C217.068 260.003 217.936 261.515 218.839 263.221C219.318 264.127 219.772 265.07 220.21 265.984C221.023 267.677 221.862 269.429 222.904 271.005C223.409 271.771 223.934 272.489 224.48 273.163L224.479 273.166Z" fill="white"/>
<path d="M226.556 270.427C227.543 271.648 228.663 272.767 229.993 273.715C232.36 275.402 234.49 276.543 237.184 276.631C237.966 276.657 238.516 276.501 238.868 276.158C239.222 275.81 239.389 275.248 239.377 274.44C239.348 272.402 238.401 270.738 237.485 269.127L237.391 268.962C235.73 266.036 233.905 263.081 231.812 259.929C229.587 256.575 227.918 252.73 226.852 248.504C225.853 244.545 224.969 240.476 224.114 236.541C223.533 233.862 222.931 231.091 222.297 228.38C221.618 225.466 220.847 222.529 220.103 219.688C219.737 218.296 219.36 216.855 218.998 215.436L218.922 215.14C217.896 211.12 216.834 206.963 216.972 202.573C217.094 198.665 217.757 195.752 219.121 193.134C220.529 190.43 222.722 188.19 224.844 186.023L225.012 185.853C227.251 183.565 229.566 181.2 231.275 178.415C232.371 176.631 233.254 174.707 232.312 172.721C232.301 172.699 232.276 172.69 232.253 172.701C232.23 172.711 232.222 172.738 232.232 172.76C233.157 174.707 232.283 176.607 231.2 178.369C229.495 181.146 227.183 183.507 224.948 185.791L224.781 185.962C222.655 188.133 220.457 190.378 219.043 193.094C217.672 195.725 217.007 198.649 216.884 202.572C216.746 206.975 217.809 211.137 218.836 215.163L218.912 215.46C219.274 216.88 219.652 218.32 220.017 219.714C220.762 222.553 221.531 225.489 222.211 228.402C222.844 231.113 223.445 233.883 224.027 236.563C224.882 240.498 225.767 244.568 226.765 248.528C227.833 252.765 229.506 256.618 231.738 259.981C233.829 263.132 235.653 266.085 237.313 269.009L237.407 269.174C238.317 270.774 239.258 272.428 239.287 274.443C239.298 275.225 239.14 275.765 238.803 276.097C238.472 276.423 237.941 276.57 237.184 276.545C234.512 276.458 232.396 275.322 230.041 273.645C226.601 271.195 224.566 267.572 222.598 264.067C222.368 263.657 222.137 263.246 221.904 262.838C221.763 262.59 221.623 262.34 221.483 262.09C220.94 261.12 220.378 260.116 219.721 259.206C218.002 256.828 216.166 254.469 214.58 252.444C211.353 248.324 208.836 244.349 206.882 240.29C205.742 237.921 204.449 235.586 203.197 233.328C202.572 232.2 201.926 231.033 201.307 229.878C200.798 228.928 200.27 227.967 199.758 227.038C198.47 224.697 197.138 222.276 196.003 219.805C193.533 214.424 192.326 208.861 192.416 203.27C192.477 199.441 193.564 196.486 195.737 194.235C197.178 192.743 198.545 191.55 199.916 190.587C202.61 188.694 205.935 186.006 207.748 181.982C208.795 179.658 210.219 177.742 211.979 176.286C213.195 175.281 214.729 174.542 216.082 173.892C219.671 172.165 222.908 171.207 225.982 170.962C228.516 170.76 230.727 170.75 232.167 172.683C232.177 172.704 232.209 172.707 232.229 172.692C232.248 172.677 232.253 172.65 232.238 172.63C230.775 170.661 228.535 170.67 225.974 170.874C222.89 171.119 219.642 172.08 216.043 173.812C214.685 174.465 213.145 175.206 211.923 176.217C210.151 177.681 208.718 179.609 207.667 181.945C205.863 185.95 202.549 188.629 199.864 190.514C198.49 191.48 197.118 192.677 195.673 194.174C193.484 196.441 192.39 199.415 192.328 203.268C192.238 208.872 193.448 214.448 195.923 219.841C197.059 222.316 198.391 224.738 199.681 227.08C200.192 228.008 200.72 228.969 201.229 229.919C201.849 231.075 202.495 232.242 203.121 233.37C204.371 235.627 205.664 237.961 206.803 240.327C208.759 244.391 211.281 248.372 214.511 252.497C216.096 254.521 217.932 256.88 219.65 259.256C220.305 260.161 220.865 261.163 221.406 262.131C221.546 262.38 221.686 262.63 221.828 262.879C222.06 263.287 222.291 263.698 222.521 264.108C223.735 266.269 224.975 268.477 226.553 270.428L226.556 270.427Z" fill="white"/>
<path d="M214.119 248.719C215.856 250.866 217.569 252.576 219.4 254.003L219.78 254.3C220.895 255.171 222.049 256.073 223.283 256.83C223.869 257.19 224.34 257.274 224.682 257.084C225.024 256.893 225.197 256.452 225.198 255.771C225.201 253.27 225.083 251.395 224.816 249.69C224.17 245.575 223.409 241.42 222.674 237.401C222.552 236.739 222.431 236.076 222.31 235.412C222.218 234.904 222.127 234.395 222.037 233.887C221.664 231.787 221.278 229.616 220.736 227.534C220.181 225.402 219.552 223.26 218.945 221.188C218.326 219.076 217.686 216.892 217.124 214.723C216.346 211.721 215.542 208.615 215.22 205.416C214.9 202.233 215.14 198.97 215.386 196.483C215.634 193.96 216.479 191.863 217.896 190.247C218.905 189.097 220.044 188.011 221.147 186.962C221.601 186.529 222.072 186.081 222.528 185.634C223.047 185.124 223.589 184.614 224.114 184.121C225.248 183.053 226.421 181.949 227.458 180.762C229.075 178.912 230.478 176.851 229.791 174.324C229.776 174.272 229.746 174.23 229.708 174.198C229.689 174.16 229.66 174.126 229.621 174.101C229.43 173.979 229.245 173.835 229.048 173.682C228.611 173.341 228.157 172.987 227.606 172.893C224.089 172.292 220.551 173.23 216.472 175.842C214.111 177.355 212.438 179.582 211.209 182.854C210.053 185.929 208.547 188.016 206.473 189.422C205.572 190.032 204.62 190.605 203.701 191.159C202.67 191.779 201.604 192.421 200.598 193.122C197.18 195.502 195.152 198.511 194.571 202.067C193.921 206.048 194.3 210.156 195.697 214.275C196.582 216.884 197.711 219.626 199.251 222.902C199.753 223.97 200.408 224.968 201.041 225.933C201.445 226.549 201.862 227.185 202.233 227.829C203.4 229.857 204.498 231.921 205.417 233.674C205.968 234.723 206.513 235.798 207.04 236.839C207.734 238.207 208.451 239.623 209.19 240.996C209.31 241.219 209.43 241.442 209.549 241.665C210.415 243.283 211.31 244.957 212.395 246.459C212.976 247.263 213.549 248.016 214.119 248.722L214.119 248.719ZM229.344 174.482C229.948 176.777 228.623 178.704 227.101 180.445C226.079 181.614 224.914 182.71 223.788 183.771C223.262 184.267 222.719 184.778 222.195 185.292C221.742 185.736 221.274 186.182 220.82 186.615C219.71 187.672 218.564 188.764 217.541 189.93C216.058 191.621 215.174 193.808 214.915 196.43C214.667 198.94 214.425 202.234 214.749 205.458C215.074 208.693 215.884 211.816 216.666 214.835C217.23 217.012 217.872 219.2 218.492 221.315C219.098 223.384 219.725 225.522 220.279 227.647C220.816 229.712 221.2 231.874 221.572 233.964C221.662 234.474 221.752 234.984 221.846 235.492C221.967 236.156 222.088 236.818 222.209 237.481C222.944 241.497 223.704 245.65 224.35 249.759C224.614 251.437 224.731 253.29 224.727 255.765C224.725 256.248 224.628 256.568 224.452 256.666C224.275 256.766 223.947 256.678 223.53 256.422C222.318 255.679 221.177 254.787 220.071 253.924L219.692 253.627C217.296 251.761 215.099 249.394 212.778 246.178C211.712 244.7 210.824 243.042 209.967 241.438C209.847 241.214 209.727 240.989 209.607 240.766C208.871 239.398 208.155 237.985 207.463 236.619C206.935 235.577 206.389 234.5 205.836 233.448C204.914 231.693 203.814 229.623 202.642 227.587C202.265 226.931 201.844 226.289 201.436 225.668C200.811 224.716 200.166 223.732 199.678 222.696C198.147 219.436 197.024 216.71 196.144 214.118C194.772 210.073 194.4 206.043 195.037 202.139C195.596 198.714 197.558 195.809 200.867 193.505C201.861 192.814 202.921 192.176 203.944 191.559C204.87 191.002 205.827 190.427 206.739 189.809C208.899 188.347 210.46 186.188 211.653 183.016C212.844 179.845 214.458 177.692 216.729 176.237C220.703 173.691 224.134 172.775 227.529 173.355C227.963 173.43 228.349 173.731 228.759 174.051C228.947 174.198 229.142 174.35 229.345 174.481L229.344 174.482Z" fill="white"/>
<path d="M129.165 179.712C130.241 181.042 131.559 182.029 133.157 182.706C135.956 183.893 139.049 183.902 142.511 183.795C146.604 183.668 150.773 183.45 154.803 183.239C156.34 183.159 157.877 183.077 159.415 183.001C162.4 182.853 165.563 182.564 168.508 180.823C170.148 179.854 171.196 178.541 171.712 176.809C172.13 175.404 171.698 174.255 171.279 173.144L171.23 173.017C171.214 172.975 171.187 172.939 171.154 172.913C171.147 172.899 171.139 172.888 171.131 172.875C169.15 170.195 166.197 168.729 163.57 167.647C161.282 166.705 158.933 165.797 156.66 164.918C153.606 163.737 150.448 162.516 147.406 161.203C143.392 159.47 139.932 156.88 137.124 153.508C136.544 152.812 135.967 152.092 135.41 151.396C134.888 150.746 134.348 150.073 133.807 149.419C133.019 148.468 132.238 147.985 131.417 147.938C130.521 147.888 129.566 148.368 128.496 149.406C127.393 150.477 126.901 151.807 126.454 153.19C125.235 156.969 124.76 161.078 125.002 165.752C125.188 169.344 125.71 174.001 128.111 178.166C128.433 178.725 128.784 179.239 129.165 179.709L129.165 179.712ZM170.794 173.201L170.835 173.309C171.244 174.395 171.631 175.42 171.258 176.672C170.778 178.285 169.799 179.509 168.266 180.415C165.412 182.102 162.315 182.384 159.389 182.528C157.851 182.604 156.314 182.684 154.776 182.766C150.748 182.977 146.582 183.196 142.494 183.321C139.089 183.426 136.05 183.421 133.34 182.27C131.275 181.395 129.698 179.976 128.52 177.933C126.169 173.855 125.657 169.27 125.473 165.731C125.234 161.115 125.702 157.062 126.904 153.339C127.332 152.014 127.8 150.742 128.826 149.748C129.795 148.806 130.635 148.37 131.392 148.412C132.074 148.451 132.745 148.878 133.444 149.722C133.983 150.373 134.522 151.044 135.043 151.694C135.602 152.391 136.181 153.112 136.762 153.811C139.618 157.241 143.138 159.875 147.22 161.638C150.271 162.955 153.433 164.179 156.492 165.361C158.762 166.239 161.109 167.146 163.391 168.086C165.958 169.142 168.838 170.569 170.751 173.156C170.763 173.174 170.777 173.19 170.795 173.202L170.794 173.201Z" fill="white"/>
<path d="M135.287 173.813C136.176 174.912 137.432 175.717 139.015 176.166C143.12 177.331 147.287 177.008 151.399 175.203C153.074 174.468 153.444 173.892 153.284 172.265C153.281 172.242 153.26 172.222 153.235 172.226C153.211 172.228 153.192 172.25 153.196 172.274C153.353 173.868 153.01 174.4 151.363 175.122C147.27 176.918 143.124 177.241 139.039 176.08C135.505 175.077 133.616 172.273 133.855 168.388C133.96 166.682 135.305 164.928 137.592 165.038C140.264 165.167 142.579 166.08 144.818 166.963C146.971 167.811 149.462 168.901 151.619 170.558C152.021 170.867 152.354 171.274 152.677 171.669C152.826 171.851 152.979 172.039 153.139 172.216C153.156 172.235 153.184 172.236 153.201 172.22C153.22 172.203 153.222 172.174 153.204 172.158C153.046 171.982 152.893 171.795 152.745 171.614C152.419 171.216 152.083 170.805 151.671 170.49C149.506 168.826 147.007 167.733 144.85 166.882C142.604 165.997 140.281 165.081 137.595 164.952C135.252 164.839 133.873 166.636 133.765 168.384C133.631 170.577 134.166 172.429 135.287 173.815L135.287 173.813Z" fill="white"/>
<path d="M25.1878 32.6975C25.9254 33.6091 27.167 34.244 28.8936 34.5902C31.4114 35.0953 33.9899 35.3714 36.3998 35.5948C38.8246 35.8198 42.0018 36.1972 45.0549 37.1217C49.3218 38.414 53.0781 40.769 56.2212 44.1221C58.5576 46.6133 60.2075 49.6402 61.571 52.2812C62.3619 53.8146 63.0817 55.4253 63.7777 56.9821C64.9011 59.4955 66.062 62.0945 67.5654 64.4652C69.6863 67.8094 72.3624 68.728 76.2423 67.4463C78.3975 66.7334 80.4097 65.7611 82.2223 64.5553C84.117 63.2951 86.0195 61.5957 85.7689 58.5423C85.5808 56.2405 84.805 54.245 83.8881 52.0602C81.6964 46.8407 80.1192 41.4474 79.2031 36.0317C78.4952 31.8461 77.2221 27.7731 75.42 23.9253C74.6932 22.3736 73.7767 20.8991 72.8889 19.4732C72.4921 18.8364 72.0827 18.1763 71.6954 17.5212C71.6797 17.4943 71.6602 17.472 71.6368 17.4543C71.6263 17.4338 71.6139 17.4148 71.5973 17.3962C71.3387 17.1159 71.078 16.8389 70.8175 16.5601C70.254 15.9576 69.6715 15.3353 69.118 14.7095C67.4526 12.8222 65.1861 11.3618 62.3817 10.3672C59.234 9.25067 55.9321 8.46942 53.4069 7.9138C50.6301 7.30254 47.6535 6.71865 44.482 6.88727C41.3266 7.0551 38.8082 8.44773 36.7838 11.1457C36.0351 12.1435 35.2785 13.1614 34.5473 14.145C32.9654 16.2744 31.3289 18.4771 29.6703 20.6076L29.3647 20.9998C27.9259 22.8441 26.4387 24.7506 25.3669 26.8852C24.3165 28.9766 24.1125 30.7095 24.7602 32.0339C24.8754 32.2701 25.0174 32.4907 25.1852 32.6981L25.1878 32.6975ZM57.6313 45.0217C57.2928 44.6032 56.9389 44.1941 56.5676 43.799C53.3661 40.385 49.5387 37.9853 45.1918 36.6693C42.097 35.7327 38.8908 35.3514 36.4427 35.1239C34.0454 34.901 31.4818 34.6266 28.9862 34.1263C27.0206 33.7326 25.7429 32.9591 25.1897 31.8267C24.6099 30.6425 24.8142 29.0527 25.794 27.0994C26.8446 25.0063 28.3181 23.1185 29.7424 21.292L30.0481 20.8998C31.7095 18.7654 33.3479 16.5612 34.9318 14.4286C35.663 13.445 36.4187 12.4279 37.1665 11.4309C39.102 8.8521 41.5056 7.52038 44.5129 7.36106C47.6251 7.19616 50.5663 7.77206 53.3109 8.37734C55.8221 8.93061 59.106 9.70656 62.2285 10.8145C64.9559 11.7815 67.1556 13.1968 68.7675 15.0237C69.3254 15.655 69.9109 16.2809 70.4758 16.8853C70.7356 17.1631 70.9954 17.441 71.2542 17.7196C71.2624 17.7297 71.2725 17.7384 71.2827 17.7454C71.2855 17.7507 71.2883 17.7561 71.2919 17.7623C71.681 18.4236 72.0929 19.0847 72.4909 19.725C73.3708 21.1391 74.2809 22.602 74.9953 24.1271C76.7788 27.9351 78.0385 31.967 78.7398 36.1107C79.6623 41.5625 81.2493 46.9905 83.456 52.2435C84.3575 54.3905 85.1187 56.3491 85.3013 58.5805C85.5311 61.3884 83.7428 62.9772 81.9628 64.1613C80.1855 65.3431 78.2122 66.2977 76.0962 66.9971C72.8451 68.072 70.5696 67.5508 68.6984 65.2383C68.4478 64.9286 68.2055 64.5878 67.9683 64.2139C66.4829 61.8729 65.3288 59.2898 64.213 56.7915C63.5144 55.2277 62.7918 53.6116 61.9945 52.0666C60.8314 49.8141 59.4607 47.2826 57.6328 45.0235L57.6313 45.0217Z" fill="white"/>
</g>
<defs>
<clipPath id="clip0_100_627">
<rect width="721.409" height="314.214" fill="white" transform="matrix(-0.629015 -0.777393 -0.777393 0.629015 438.561 244.105)"/>
</clipPath>
</defs>
</svg>
